<?xml version="1.0" standalone="no"?>
<!DOCTYPE svg PUBLIC "-//W3C//DTD SVG 20010904//EN"
 "http://www.w3.org/TR/2001/REC-SVG-20010904/DTD/svg10.dtd">
<svg version="1.0" xmlns="http://www.w3.org/2000/svg"
 width="300.000000pt" height="400.000000pt" viewBox="0 0 300.000000 400.000000"
 preserveAspectRatio="xMidYMid meet">
<metadata>
Created by potrace 1.10, written by Peter Selinger 2001-2011
</metadata>
<g transform="translate(0.000000,400.000000) scale(0.100000,-0.100000)"
fill="#000000" stroke="none">
<path d="M1000 3885 c-267 -57 -505 -108 -530 -114 -228 -58 -402 -297 -424
-586 l-5 -70 19 90 c36 162 79 272 134 346 28 37 69 81 91 98 22 17 45 34 50
39 30 24 205 74 340 97 53 9 151 29 349 70 111 24 220 45 259 50 26 4 47 11
47 15 0 4 14 7 30 8 17 0 45 5 63 10 18 6 49 13 70 17 41 7 53 36 15 34 -13 0
-241 -47 -508 -104z"/>
<path d="M2979 3646 c-2 -3 -29 -7 -59 -10 -30 -4 -71 -9 -90 -12 -66 -10
-245 -36 -310 -44 -36 -5 -117 -16 -180 -25 -63 -10 -126 -19 -140 -20 -14 -2
-35 -6 -47 -8 -12 -3 -48 -8 -80 -12 -32 -3 -80 -12 -108 -20 -42 -11 -198
-38 -355 -60 -67 -9 -265 -54 -308 -69 -88 -32 -169 -83 -238 -151 -152 -149
-196 -255 -254 -610 -22 -134 -43 -270 -46 -301 -7 -55 -7 -56 -35 -50 -16 3
-31 1 -34 -4 -3 -6 -1 -10 4 -10 6 0 11 -11 11 -25 0 -14 7 -28 15 -31 8 -4
15 -17 15 -30 0 -20 -4 -23 -22 -19 -47 12 -128 22 -133 17 -16 -17 -1 -30 32
-29 85 2 163 -16 163 -38 0 -21 62 -33 88 -17 34 22 27 35 -17 27 -50 -8 -95
17 -88 50 2 14 -3 26 -15 34 -19 11 -25 41 -9 41 5 0 28 -12 50 -27 42 -27 55
-50 23 -39 -14 5 -13 3 3 -9 18 -14 20 -14 27 5 7 20 7 20 43 -1 20 -12 35
-16 35 -10 0 7 10 9 25 5 29 -7 32 1 9 23 -13 13 -20 14 -34 5 -24 -15 -30 -7
-19 26 8 22 89 477 101 562 2 14 10 -64 17 -173 10 -140 17 -195 24 -188 6 6
22 11 35 11 20 0 23 4 19 23 -3 12 -9 47 -13 77 -4 30 -11 62 -16 70 -8 14 -7
-3 9 -125 3 -27 2 -37 -5 -30 -9 9 -14 30 -27 125 -2 14 -9 49 -15 79 -7 38
-7 58 1 67 7 9 7 19 0 33 -13 24 -14 44 -2 37 5 -4 12 0 14 6 4 10 6 10 6 1 2
-24 19 -13 23 15 3 15 15 52 27 82 14 38 16 49 6 35 -9 -11 -18 -30 -22 -42
-3 -13 -9 -23 -13 -23 -13 0 -17 84 -5 95 6 6 24 29 40 53 40 61 128 138 194
171 84 42 144 53 446 81 66 7 148 18 183 27 35 8 66 12 69 9 4 -3 -2 -6 -13
-6 -16 0 -17 -2 -4 -11 13 -9 13 -10 -2 -6 -18 6 -53 -26 -45 -40 3 -5 1 -15
-5 -23 -8 -12 -9 -12 -4 3 9 27 -2 20 -24 -15 -24 -40 -27 -120 -5 -138 13
-10 15 -9 15 10 0 61 38 137 80 160 22 12 132 -16 148 -37 10 -13 12 -38 9
-92 l-6 -74 21 21 c17 16 21 32 19 72 -1 29 -5 60 -10 69 -5 9 -11 33 -15 54
-4 21 -11 35 -15 33 -5 -3 -16 3 -26 14 -17 19 -16 19 31 16 27 -2 76 0 109 4
156 20 165 21 165 9 0 -6 -33 -44 -73 -83 -90 -88 -149 -182 -187 -299 -12
-38 -7 -67 6 -31 69 190 189 335 341 412 61 32 216 69 363 89 72 9 130 20 130
24 0 4 -8 5 -17 3 -10 -2 -243 -31 -518 -64 -1081 -131 -1116 -136 -1205 -188
-58 -33 -153 -123 -188 -179 -22 -34 -33 -43 -56 -43 -29 0 -29 0 -22 -50 4
-33 0 -82 -13 -149 -11 -55 -37 -200 -57 -323 -20 -123 -40 -227 -45 -232 -13
-14 -99 30 -99 50 0 49 94 599 112 654 85 264 268 435 523 490 70 15 304 52
465 74 8 2 24 5 35 9 39 12 860 128 877 123 10 -2 20 -1 23 3 2 5 45 14 95 20
82 12 104 21 81 35 -4 3 -10 4 -12 2z"/>
<path d="M351 3562 c5 -13 198 -152 211 -152 5 0 6 -4 3 -10 -3 -5 -16 -10
-28 -10 -16 0 -18 -3 -8 -9 16 -11 5 -19 -53 -37 l-41 -13 33 0 c40 -1 91 19
115 46 17 19 15 22 -95 99 -135 96 -142 100 -137 86z"/>
<path d="M292 3508 c2 -6 33 -31 67 -55 63 -43 96 -57 67 -27 -9 8 -16 19 -16
24 0 5 -18 14 -40 20 -22 6 -46 20 -53 30 -13 22 -31 27 -25 8z"/>
<path d="M183 3430 c-22 -17 -43 -40 -46 -52 -4 -16 7 -8 44 28 27 26 49 50
49 51 0 6 -7 2 -47 -27z"/>
<path d="M250 3450 c-7 -5 -15 -16 -16 -24 -1 -9 1 -14 6 -11 10 6 69 -18 100
-43 14 -10 76 -55 137 -100 l113 -81 -33 -20 c-19 -11 -57 -45 -86 -76 -29
-30 -56 -55 -62 -55 -21 0 -7 27 38 72 26 26 43 51 39 55 -4 4 -32 -18 -61
-49 -52 -53 -54 -57 -44 -86 16 -47 35 -47 68 1 29 43 95 108 140 140 14 9 23
18 20 20 -2 2 -42 31 -89 65 -47 33 -93 70 -102 81 -9 11 -35 32 -57 47 -23
15 -41 30 -41 33 0 14 -56 39 -70 31z"/>
<path d="M217 3393 c-4 -3 -7 -10 -7 -14 0 -7 219 -167 255 -186 21 -11 85 -6
85 6 0 8 -106 80 -123 84 -6 1 -16 7 -22 13 -5 6 -30 17 -54 24 -24 8 -48 22
-54 31 -8 13 -15 15 -24 7 -9 -7 -13 -7 -13 0 0 6 5 14 10 17 6 4 8 11 5 16
-7 10 -48 12 -58 2z m243 -144 c22 -12 43 -25 46 -30 7 -12 -26 -24 -35 -12
-3 5 -24 22 -46 36 -48 33 -24 36 35 6z"/>
<path d="M165 3325 c17 -13 45 -36 62 -51 37 -29 36 -40 -6 -49 -16 -3 -37
-15 -47 -26 -21 -23 -12 -25 22 -3 26 17 104 36 104 25 0 -3 20 -19 45 -34 25
-16 42 -34 38 -39 -3 -6 -1 -8 5 -4 6 3 13 2 17 -4 10 -17 24 -11 22 9 0 11
-5 17 -9 15 -7 -4 -74 39 -88 57 -3 4 -45 34 -93 68 -88 61 -128 81 -72 36z"/>
<path d="M266 3181 c-17 -19 -15 -21 38 -60 30 -23 57 -41 59 -41 3 0 7 11 9
25 3 15 1 22 -5 18 -6 -4 -8 2 -4 16 4 17 3 20 -8 11 -15 -12 -48 -2 -39 12 4
6 -2 8 -16 3 -19 -6 -21 -4 -15 14 8 26 3 27 -19 2z"/>
<path d="M160 3153 c1 -4 24 -25 53 -45 29 -21 69 -52 90 -69 20 -17 37 -26
37 -20 0 5 -35 36 -77 69 -91 68 -103 76 -103 65z"/>
<path d="M1945 3090 c-3 -5 2 -10 12 -10 12 0 18 -8 19 -25 1 -14 -3 -25 -8
-25 -6 0 -8 -6 -5 -14 3 -7 1 -18 -4 -23 -15 -15 -15 -103 0 -112 9 -6 10 -11
2 -15 -6 -4 -13 4 -17 19 -3 14 -12 25 -20 25 -16 0 -19 27 -3 32 7 2 5 13 -4
31 -8 14 -17 24 -20 20 -4 -3 -7 2 -7 12 0 10 -2 16 -5 13 -3 -3 -1 -38 6 -77
6 -40 8 -75 5 -78 -3 -3 -19 0 -36 7 -42 17 -49 6 -9 -14 34 -17 59 -8 59 21
0 10 11 4 29 -16 16 -17 38 -31 48 -31 10 0 24 -5 31 -12 17 -17 86 47 111
106 28 66 27 87 -4 42 -14 -20 -25 -41 -25 -47 0 -6 -4 -8 -9 -5 -5 3 -14 -1
-21 -9 -11 -13 -10 -14 4 -9 28 11 17 -15 -14 -31 -37 -19 -40 -19 -40 5 0 11
3 19 8 18 4 -2 8 0 10 5 6 19 0 27 -19 27 -19 0 -21 -4 -15 -30 3 -19 2 -29
-4 -25 -6 3 -10 11 -10 16 0 6 -7 17 -15 26 -28 27 -14 48 30 47 46 -1 68 -6
76 -17 3 -5 9 -2 12 7 9 23 -39 44 -86 38 l-38 -4 13 28 c7 16 17 32 22 35 5
4 6 14 3 23 -4 9 -2 16 4 16 6 0 7 5 4 10 -3 6 -19 10 -35 10 -16 0 -32 -4
-35 -10z"/>
<path d="M2058 3083 c-10 -2 -19 -15 -19 -29 -1 -13 -2 -30 -3 -36 -1 -7 7
-14 17 -16 11 -2 18 2 16 10 -1 7 -1 24 0 37 1 20 5 23 31 19 24 -4 27 -2 19
9 -11 13 -28 15 -61 6z"/>
<path d="M1844 3021 c-9 -9 -59 -14 -488 -51 -130 -11 -235 -25 -240 -31 -8
-8 -5 -10 9 -5 11 3 83 10 160 16 77 6 170 14 206 18 l67 7 7 -153 c7 -150 6
-153 -16 -176 -30 -32 -39 -25 -39 30 0 30 -4 44 -13 44 -7 0 -21 15 -31 33
-17 32 -14 18 7 -35 8 -20 8 -31 0 -39 -15 -15 -31 16 -48 94 -7 34 -14 50
-14 36 -1 -28 23 -115 38 -138 8 -12 12 -12 25 -2 9 8 16 10 17 5 0 -5 2 -17
4 -28 5 -25 -4 -46 -20 -46 -31 0 -66 -93 -46 -127 9 -15 10 -11 11 24 0 58
39 105 80 97 15 -4 36 -1 47 5 14 9 11 9 -16 4 -25 -4 -32 -3 -27 5 4 7 13 12
20 12 8 0 16 10 19 21 5 17 11 20 32 17 19 -4 25 -2 21 7 -2 7 -2 16 1 19 3 3
5 55 4 116 l-2 111 23 -6 c71 -17 163 -34 166 -30 8 7 -39 21 -113 35 -38 7
-73 17 -76 23 -9 13 1 47 14 47 48 0 237 25 237 31 0 13 -16 19 -26 10z m-241
-78 c10 -60 2 -236 -10 -240 -9 -3 -13 11 -14 49 -1 29 -3 82 -4 118 -4 69 1
100 15 100 5 0 10 -12 13 -27z"/>
<path d="M1395 2930 c8 -24 -72 -210 -91 -210 -18 0 -46 39 -88 124 -40 81
-56 100 -56 67 0 -12 4 -21 9 -21 6 0 28 -35 51 -78 40 -78 100 -150 100 -121
0 21 49 117 50 97 0 -9 -5 -40 -11 -68 -8 -39 -15 -50 -26 -46 -9 4 -13 1 -11
-6 8 -24 31 -13 40 17 4 17 13 59 18 95 16 102 20 116 30 100 4 -7 6 -20 2
-28 -3 -10 -1 -13 6 -8 8 4 12 0 13 -11 0 -10 3 -13 5 -7 3 6 -4 35 -15 63
l-19 51 28 0 c16 0 31 -4 34 -9 7 -10 44 -3 52 10 3 5 -25 9 -61 9 -61 0 -66
-1 -60 -20z"/>
<path d="M1272 2900 c-1 -16 2 -30 8 -30 6 0 7 -17 4 -42 -3 -24 -1 -54 5 -68
8 -22 10 -19 10 26 2 100 -21 194 -27 114z"/>
<path d="M1125 2854 c-3 -22 -8 -50 -10 -64 -2 -14 -7 -34 -10 -45 -6 -19 -6
-19 5 -2 12 18 32 138 25 145 -2 2 -6 -13 -10 -34z"/>
<path d="M2107 2863 c-2 -4 -7 -24 -11 -43 -4 -26 -16 -42 -44 -60 -50 -34
-52 -34 -52 -15 0 13 -3 13 -21 -4 -28 -26 -46 -10 -55 48 -8 48 -20 53 -29
11 -4 -16 -10 -32 -14 -34 -4 -3 -6 -19 -3 -35 2 -18 9 -28 15 -24 7 4 8 0 4
-11 -4 -10 -7 -22 -7 -27 0 -6 -4 -7 -10 -4 -5 3 -10 -2 -10 -11 0 -36 -12 -3
-15 38 -2 42 5 85 20 121 6 13 4 16 -9 11 -22 -8 -47 -57 -37 -72 9 -15 2 -72
-9 -72 -15 0 -20 31 -9 53 9 18 9 20 -2 10 -16 -15 -39 -17 -39 -3 0 6 7 10
15 10 8 0 19 9 25 20 10 18 8 20 -19 20 -26 0 -31 -5 -40 -37 -14 -50 -15 -48
17 -62 72 -33 111 -66 112 -94 0 -41 -23 -43 -80 -8 -27 17 -61 33 -75 37 -15
4 -34 22 -47 45 -11 21 -24 36 -27 34 -11 -6 -5 -53 8 -69 11 -13 9 -20 -18
-45 -35 -33 -38 -47 -15 -79 15 -22 14 -22 -18 -21 -41 1 -92 -12 -138 -36
-19 -11 -38 -18 -42 -17 -4 1 -18 -2 -32 -8 -21 -8 -24 -7 -20 8 5 14 3 14
-10 -2 -21 -26 -32 -13 -18 20 l12 25 -40 -28 c-22 -15 -40 -31 -40 -35 0 -12
128 -9 135 2 4 7 13 6 27 -1 15 -8 23 -8 32 2 8 9 7 11 -9 5 -20 -6 -20 -6 -1
9 26 20 37 19 29 -2 -5 -12 -3 -14 7 -8 10 6 12 4 7 -9 -4 -10 -7 -19 -7 -21
0 -2 -16 -1 -36 2 -36 6 -37 5 -30 -20 4 -18 -3 -50 -23 -99 -20 -50 -30 -67
-33 -53 -2 11 -4 1 -4 -22 0 -24 1 -43 2 -43 1 0 19 43 40 95 33 85 49 106 66
90 3 -3 -1 -23 -8 -45 -7 -21 -16 -54 -19 -72 -3 -18 -8 -41 -11 -50 -4 -14 0
-18 19 -18 21 0 28 8 41 48 l16 47 -20 -24 c-28 -33 -32 -23 -13 36 10 31 13
58 8 69 -5 11 -8 22 -7 25 1 4 -9 5 -21 3 l-22 -5 22 10 c15 7 39 4 85 -10 34
-10 76 -19 91 -19 31 0 45 23 28 44 -6 7 -8 16 -4 19 3 4 1 7 -5 7 -7 0 -11
-10 -9 -22 2 -21 -2 -23 -37 -21 -22 2 -44 7 -50 13 -5 5 -19 10 -30 10 -17 0
-15 4 11 19 32 20 71 18 85 -3 5 -8 8 -7 8 1 0 6 -9 18 -20 26 -11 8 -17 17
-14 20 4 4 -18 4 -47 0 -30 -3 -51 -2 -46 2 9 11 42 17 90 17 53 -1 64 -4 64
-19 0 -9 -4 -10 -11 -3 -5 5 -17 10 -25 10 -27 0 4 -21 35 -24 16 -1 28 -7 27
-12 -1 -5 -3 -16 -5 -24 -1 -8 3 -14 10 -12 15 3 2 -27 -24 -52 -14 -14 -14
-16 0 -16 9 0 21 9 28 20 15 23 33 27 24 5 -3 -8 -1 -15 4 -15 5 0 6 -7 3 -17
-5 -11 -3 -14 6 -9 9 6 12 1 11 -15 -4 -45 -1 -56 11 -37 5 10 9 24 8 30 -1 7
1 21 6 31 12 29 -16 193 -37 212 -8 7 -9 5 -4 -9 10 -30 37 -189 32 -194 -11
-10 -26 12 -32 46 -9 55 -27 102 -36 96 -4 -3 -5 1 -2 9 3 9 -6 17 -28 23 -27
8 -33 15 -35 40 -3 40 19 59 77 68 41 6 43 5 20 -7 -19 -9 -25 -21 -27 -47 0
-19 1 -25 4 -13 7 37 93 44 93 7 0 -8 5 -13 12 -12 6 2 21 -11 33 -29 25 -36
35 -33 35 9 0 17 4 27 10 23 9 -5 15 23 11 48 0 4 4 7 9 7 6 0 10 7 10 15 0 8
-5 15 -11 15 -8 0 -8 5 1 15 7 8 9 22 5 32 -12 28 -16 73 -6 73 5 0 14 -7 21
-15 24 -28 103 -9 157 38 28 25 35 27 29 12 -27 -67 -28 -77 -16 -100 10 -18
9 -27 -3 -46 -9 -13 -19 -44 -23 -69 -6 -43 -6 -44 10 -23 9 12 15 28 14 34
-4 16 49 34 122 43 l56 7 -4 -41 c-2 -22 -6 -40 -7 -40 -14 0 -164 -22 -177
-26 -15 -5 -18 -18 -18 -94 l0 -89 -62 -3 -62 -3 -2 -37 c-1 -36 0 -38 30 -37
30 0 30 1 9 11 -13 6 -23 18 -23 27 0 13 10 15 60 13 55 -4 59 -5 50 -23 -6
-11 -7 -19 -1 -19 7 0 18 -54 36 -180 0 -3 3 -9 7 -15 3 -5 8 -32 9 -60 l4
-50 -31 0 -31 0 33 -39 c19 -22 34 -43 34 -47 0 -4 7 -9 15 -13 11 -4 8 4 -7
27 -13 17 -27 34 -31 35 -4 2 4 16 18 30 15 14 35 44 46 67 18 38 25 51 49 93
6 9 14 27 20 40 5 12 14 22 20 22 7 0 9 8 5 19 -3 11 1 26 11 36 11 10 13 19
7 23 -15 10 -11 132 4 132 7 0 13 3 13 8 0 4 15 7 33 7 17 0 44 4 58 7 26 8
26 7 24 -40 -1 -26 2 -57 6 -69 6 -17 3 -26 -13 -37 -12 -8 -25 -13 -30 -10
-14 9 -9 -13 7 -26 14 -12 14 -15 0 -30 -21 -23 -19 -30 10 -30 20 0 26 7 36
43 34 123 -4 346 -78 451 -18 26 -63 66 -103 93 -46 30 -76 58 -85 77 -12 29
-13 25 -10 -47 2 -62 0 -77 -11 -73 -8 3 -11 0 -8 -8 3 -8 0 -17 -7 -22 -7 -4
-10 -3 -5 4 3 5 0 12 -6 15 -10 3 -10 9 -1 28 17 33 21 141 6 146 -6 2 -13 0
-16 -4z m114 -136 c63 -50 69 -56 63 -72 -5 -13 -17 -16 -50 -13 -24 2 -44 1
-44 -2 0 -3 -9 -6 -20 -7 -11 -1 -20 2 -20 6 0 5 9 20 20 34 11 14 20 35 20
46 0 24 8 26 31 8z m116 -96 c-3 -14 -1 -18 9 -14 8 3 14 1 15 -3 0 -5 2 -22
4 -37 2 -16 -4 -42 -16 -60 -27 -45 -24 -55 9 -24 33 32 38 33 45 8 3 -13 -3
-22 -19 -30 -13 -6 -24 -14 -23 -18 1 -5 -2 -19 -6 -31 -6 -20 -13 -23 -35
-19 -15 3 -32 1 -37 -4 -7 -7 -10 20 -8 85 2 89 5 98 31 130 34 40 38 43 31
17z m-99 -130 c15 -9 19 -92 10 -208 -4 -57 -14 -90 -47 -157 -23 -47 -45 -88
-50 -90 -24 -15 -51 154 -51 326 0 110 5 134 26 117 11 -9 14 -9 14 1 0 20 24
5 31 -21 7 -24 7 -24 8 3 1 23 8 30 41 37 3 0 11 -3 18 -8z"/>
<path d="M2308 2449 c-23 -13 -23 -30 -1 -22 12 5 14 3 8 -7 -5 -9 -4 -11 4
-6 6 4 9 11 6 16 -3 5 3 13 12 19 14 8 15 10 3 10 -8 0 -23 -4 -32 -10z"/>
<path d="M1182 2820 c3 -8 13 -39 22 -67 10 -29 21 -55 25 -57 9 -6 -34 122
-44 132 -5 4 -6 0 -3 -8z"/>
<path d="M1661 2763 c-23 -16 -23 -17 -5 -23 18 -7 63 16 64 33 0 13 -35 7
-59 -10z"/>
<path d="M1280 2679 c0 -6 -9 -9 -20 -6 -12 3 -18 1 -14 -5 3 -5 15 -8 25 -5
20 5 22 -3 21 -66 -1 -38 22 -30 26 9 3 35 -13 84 -28 84 -5 0 -10 -5 -10 -11z"/>
<path d="M2003 2632 c-18 -15 -34 -39 -37 -54 -6 -35 1 -36 14 -3 8 21 14 24
34 19 14 -3 27 -1 31 6 5 7 0 11 -11 10 -11 -1 -23 -2 -27 -1 -13 2 27 39 48
44 20 5 20 5 0 6 -11 0 -34 -12 -52 -27z"/>
<path d="M1118 2641 c-22 -5 -25 -9 -18 -21 8 -12 12 -13 19 -2 4 8 12 13 17
12 5 -1 10 3 12 9 2 6 2 10 0 10 -1 -1 -15 -4 -30 -8z"/>
<path d="M1580 2641 c0 -4 6 -15 13 -25 10 -14 18 -16 30 -10 14 8 11 12 -14
26 -16 9 -29 14 -29 9z"/>
<path d="M1317 2523 c-4 -3 -7 -15 -7 -25 0 -26 24 -17 28 10 3 21 -8 29 -21
15z"/>
<path d="M1800 2501 c0 -6 4 -12 9 -15 9 -6 35 -92 34 -116 0 -8 -2 -22 -3
-30 -1 -8 -2 -29 -1 -47 1 -24 5 -31 16 -27 19 8 19 -7 0 -32 -11 -14 -14 -15
-15 -4 0 8 -12 -5 -26 -30 -14 -25 -42 -62 -61 -82 -31 -32 -34 -38 -19 -44
17 -6 31 1 31 15 0 18 72 100 88 101 20 0 39 40 41 87 1 25 6 33 19 33 13 0
17 5 12 19 -3 10 1 24 10 31 21 17 19 30 -5 30 -13 0 -25 12 -35 37 -8 20 -18
34 -20 31 -3 -3 1 -20 9 -39 19 -47 24 -91 9 -96 -7 -3 -15 8 -19 24 -14 66
-38 127 -55 144 -11 11 -19 15 -19 10z"/>
<path d="M1273 2488 c-19 -25 -23 -48 -8 -48 8 0 17 11 21 25 7 30 1 41 -13
23z"/>
<path d="M1785 2458 c19 -84 21 -106 8 -153 -7 -27 -13 -64 -13 -81 0 -24 -11
-41 -47 -75 -27 -24 -59 -52 -73 -62 -14 -10 -17 -16 -8 -13 9 3 19 -2 22 -10
3 -8 12 -14 21 -14 8 0 15 -5 15 -11 0 -7 10 -9 26 -5 14 4 24 3 21 -1 -3 -4
11 -18 29 -30 19 -12 34 -18 34 -13 0 4 -6 10 -12 12 -9 3 -8 12 6 32 13 20
15 31 7 39 -6 6 -11 17 -11 24 0 11 4 11 23 2 19 -11 20 -10 10 3 -11 13 -5
14 46 14 33 -1 57 -4 54 -8 -5 -9 7 -10 77 -10 24 0 46 4 48 10 2 8 -13 9 -49
5 -39 -5 -50 -3 -45 6 4 6 10 10 14 7 4 -2 16 0 27 5 12 5 -23 7 -85 5 -58 -2
-94 -1 -80 4 22 6 23 8 8 15 -24 10 -48 -1 -48 -20 0 -9 -7 -26 -15 -39 -15
-22 -14 -24 7 -29 12 -4 19 -9 16 -13 -4 -3 -15 -1 -24 4 -12 6 -25 7 -36 1
-10 -6 -27 -5 -43 1 l-27 10 51 55 c32 36 52 67 55 88 2 18 9 62 15 98 9 53 8
75 -4 117 -16 51 -30 73 -20 30z"/>
<path d="M1104 2398 c-3 -4 31 -8 75 -8 51 0 81 4 81 11 0 12 -149 9 -156 -3z"/>
<path d="M1332 2350 c-28 -61 -52 -137 -44 -144 2 -3 -1 -25 -7 -49 -11 -36
-10 -50 2 -80 9 -19 12 -39 9 -43 -4 -4 -1 -4 6 0 15 9 16 48 1 63 -7 7 -9 25
-4 49 5 27 9 34 15 24 5 -8 6 -18 4 -22 -3 -4 2 -8 10 -8 9 0 16 -4 16 -10 0
-5 -5 -10 -11 -10 -6 0 -7 -5 -2 -12 4 -7 6 -24 4 -37 -2 -18 1 -22 13 -18 8
3 18 2 21 -3 11 -18 54 -11 65 10 6 11 15 20 21 20 5 0 26 7 47 16 20 9 47 16
60 15 13 -2 30 3 39 11 9 7 14 9 11 3 -3 -6 6 -11 22 -12 19 -1 40 9 67 32 22
19 43 32 46 29 3 -3 4 5 3 19 0 13 -6 24 -13 24 -6 0 -9 -6 -6 -13 5 -15 -40
-47 -70 -49 -12 -2 -21 -8 -20 -14 2 -6 -2 -11 -7 -11 -5 0 -10 4 -10 9 0 10
-91 -4 -119 -18 -14 -8 -20 -8 -23 0 -2 7 -19 13 -38 14 -72 5 -119 24 -126
51 -7 26 24 124 57 182 17 30 17 32 1 32 -11 0 -25 -18 -40 -50z m78 -260 c0
-6 -7 -13 -15 -16 -20 -8 -48 3 -40 16 8 13 55 13 55 0z"/>
<path d="M1616 2308 c2 -13 -6 -51 -17 -86 -12 -35 -19 -65 -17 -68 3 -2 13 3
24 12 10 8 13 13 7 9 -7 -3 -13 -3 -13 1 0 17 25 74 32 74 4 0 8 8 8 18 1 16
1 16 11 -1 6 -10 8 -30 4 -45 l-6 -27 22 22 22 22 -38 35 c-21 20 -32 36 -26
36 7 0 9 5 6 10 -11 18 -24 10 -19 -12z"/>
<path d="M290 2310 c0 -5 4 -10 10 -10 17 0 120 -106 120 -124 0 -37 -55 -4
-105 63 -14 19 -25 31 -25 27 0 -5 -7 -3 -15 4 -19 16 -19 7 -1 -28 14 -27
112 -122 119 -116 9 9 49 -48 87 -123 22 -44 52 -88 65 -97 22 -15 23 -19 12
-43 -9 -21 -9 -27 1 -31 6 -2 12 -14 12 -28 0 -17 -9 -28 -32 -39 -29 -14 -31
-14 -14 -1 21 17 32 56 17 56 -5 0 -13 -9 -16 -20 -4 -11 -23 -28 -43 -38 -36
-17 -37 -19 -38 -72 0 -30 -6 -68 -12 -84 l-12 -28 -78 7 c-42 4 -81 11 -87
16 -11 11 -82 11 -109 0 -31 -12 -8 -18 114 -30 63 -7 129 -13 145 -15 28 -3
32 1 56 54 l27 58 -20 20 -20 20 22 22 c15 15 25 18 34 11 9 -7 18 -6 33 4 19
14 20 12 19 -22 -1 -33 3 -38 47 -60 51 -26 52 -28 37 -67 -7 -19 -6 -26 3
-26 9 0 9 -2 -1 -9 -10 -6 -10 -10 3 -21 12 -10 18 -10 30 0 8 7 12 17 9 22
-4 7 19 8 67 5 49 -4 61 -3 34 2 l-40 8 36 2 c44 1 54 10 31 27 -19 15 -66 19
-58 5 3 -4 -12 -13 -33 -20 -53 -15 -60 -14 -31 9 l25 20 -27 0 c-16 0 -28 5
-28 11 0 6 6 9 13 6 8 -3 31 3 53 12 21 10 54 21 72 24 30 6 32 5 22 -13 -17
-31 -11 -35 10 -7 12 14 27 24 34 21 8 -3 17 -1 21 5 3 6 16 11 28 11 25 0
120 86 112 101 -4 5 2 9 12 9 10 0 29 7 41 16 20 14 22 14 22 0 0 -9 -4 -16
-9 -16 -5 0 -49 -36 -97 -80 -71 -64 -94 -79 -111 -75 -16 4 -23 1 -23 -9 0
-11 9 -14 38 -10 28 3 32 2 17 -5 -11 -5 -31 -10 -45 -10 -23 -1 -23 -2 -7
-18 15 -16 18 -15 37 2 18 16 20 17 14 2 -8 -21 5 -22 34 -1 26 18 29 34 5 35
-12 0 -6 6 14 16 18 9 35 25 38 34 12 37 73 86 117 93 67 11 290 127 274 143
-3 3 -64 -22 -135 -56 -72 -33 -135 -61 -140 -61 -16 0 -17 33 -2 65 21 45 80
103 112 110 46 10 49 29 3 22 -28 -4 -48 -16 -70 -41 -23 -26 -36 -34 -52 -29
-12 3 -20 9 -17 13 3 4 -2 10 -10 14 -10 3 -15 20 -15 48 0 49 -6 60 -37 77
-13 6 -23 21 -23 32 0 16 -5 19 -20 14 -10 -3 -28 -1 -40 5 -22 12 -27 1 -7
-19 9 -11 9 -13 0 -7 -7 4 -13 3 -13 -2 0 -5 13 -12 30 -15 27 -6 61 -49 65
-82 9 -81 20 -116 41 -134 31 -27 31 -43 0 -35 -16 4 -39 -4 -77 -29 -30 -19
-77 -46 -105 -60 -29 -15 -59 -33 -67 -42 -9 -8 -38 -19 -65 -25 -26 -5 -53
-10 -58 -11 -33 -6 -85 4 -105 20 -23 19 -23 19 -6 56 9 20 13 33 7 30 -7 -4
-8 3 -4 22 4 15 40 67 80 115 64 75 74 93 80 137 7 56 -10 74 -20 21 -3 -16
-9 -43 -12 -60 -3 -16 -9 -30 -14 -30 -4 0 -17 -16 -29 -35 -26 -44 -59 -59
-83 -37 -10 8 -18 19 -18 25 0 5 -25 45 -55 88 -44 63 -55 86 -55 118 0 46
-49 124 -100 159 -34 23 -70 29 -70 12z m660 -567 c0 -9 -81 -45 -87 -39 -5 5
59 44 75 45 6 1 12 -2 12 -6z"/>
<path d="M1562 2298 c-7 -7 -17 -14 -22 -14 -6 -1 -12 -2 -15 -3 -3 0 -1 -10
5 -20 5 -11 6 -22 1 -25 -5 -3 -11 -15 -14 -26 -5 -18 -3 -19 9 -9 9 7 22 26
30 42 9 16 18 27 20 24 6 -6 -16 -49 -30 -58 -4 -4 -3 -15 3 -25 7 -11 10 -12
8 -4 -2 8 2 22 10 31 15 18 27 99 14 99 -4 0 -13 -6 -19 -12z"/>
<path d="M1690 2274 c0 -11 5 -14 16 -10 12 5 15 2 10 -9 -3 -9 -2 -13 4 -10
19 12 11 45 -10 45 -12 0 -20 -7 -20 -16z"/>
<path d="M2987 2043 c-4 -115 -10 -254 -13 -310 -6 -91 -5 -103 9 -103 14 0
16 33 17 310 0 171 -1 310 -3 310 -2 0 -7 -93 -10 -207z"/>
<path d="M2442 2188 c1 -7 -16 -40 -37 -72 -69 -102 -74 -110 -92 -146 -10
-19 -28 -39 -40 -46 -29 -14 -63 -44 -63 -56 0 -8 19 -5 58 10 9 3 11 -2 7
-21 -4 -15 -2 -28 6 -32 8 -6 11 -2 7 11 -8 31 44 108 78 115 24 6 16 14 -10
10 -10 -2 26 58 70 116 33 43 51 94 39 113 -9 14 -26 13 -23 -2z"/>
<path d="M925 2051 c-16 -10 -31 -28 -33 -40 -3 -17 -7 -20 -16 -12 -10 9 -13
5 -12 -18 1 -16 4 -27 7 -25 6 3 40 -31 54 -54 4 -8 0 -19 -11 -27 -18 -13
-17 -14 6 -8 21 5 23 4 13 -8 -9 -11 -6 -14 17 -14 16 0 28 5 27 10 -1 6 6 10
15 10 10 0 23 7 30 15 11 12 10 12 -6 0 -17 -14 -18 -13 -12 8 4 13 3 22 -3
22 -5 0 -13 -9 -16 -20 -8 -25 -30 -26 -39 -2 -4 9 -15 33 -26 52 -27 50 -26
78 5 86 14 4 28 4 32 1 11 -12 31 18 21 31 -13 15 -16 15 -53 -7z"/>
<path d="M1549 2051 l-23 -18 32 5 c38 5 66 32 34 32 -11 0 -30 -8 -43 -19z"/>
<path d="M2455 2040 c8 -13 -17 -50 -33 -50 -7 0 -11 -4 -7 -10 3 -5 15 -6 28
-1 16 6 35 3 63 -10 42 -20 104 -25 104 -9 0 17 -49 43 -72 37 -11 -3 -34 -3
-49 0 -24 4 -27 8 -19 24 14 24 13 29 -6 29 -8 0 -13 -4 -9 -10z"/>
<path d="M1841 2018 c5 -10 6 -18 1 -18 -5 0 -9 -6 -9 -14 0 -11 4 -12 18 -3
13 8 21 7 33 -6 9 -9 22 -14 29 -11 7 2 22 -5 34 -16 12 -11 29 -20 36 -20 8
0 20 -6 26 -13 8 -11 6 -18 -9 -32 -11 -10 -20 -28 -19 -39 0 -17 2 -18 7 -4
4 9 19 26 35 38 32 25 35 46 7 55 -11 3 -20 11 -20 16 0 5 -6 9 -12 9 -7 0
-42 14 -78 31 -46 21 -60 33 -51 39 10 5 6 8 -11 7 -22 -2 -24 -5 -17 -19z"/>
<path d="M983 1979 c-1 -42 1 -50 15 -47 17 4 19 24 7 76 -9 38 -20 24 -22
-29z"/>
<path d="M1350 1999 c0 -6 -4 -8 -9 -4 -5 3 -12 1 -16 -5 -4 -6 7 -10 27 -10
18 0 47 -4 64 -9 23 -6 35 -4 52 9 l22 18 -37 6 c-59 8 -103 6 -103 -5z"/>
<path d="M2469 1963 c13 -26 3 -30 -30 -12 -27 14 -87 -13 -85 -38 2 -26 23
-60 42 -67 18 -7 44 10 44 28 0 6 -5 4 -10 -4 -8 -12 -10 -12 -10 5 0 39 12
64 27 58 9 -4 13 -14 9 -29 -7 -28 7 -39 24 -18 10 11 15 12 20 3 6 -8 9 -8
14 0 4 6 0 14 -8 17 -9 3 -16 16 -16 29 0 12 -7 29 -17 36 -15 13 -15 12 -4
-8z m-59 -48 c0 -8 -9 -15 -19 -15 -10 0 -21 7 -25 15 -4 11 1 15 19 15 16 0
25 -6 25 -15z"/>
<path d="M866 1912 c-7 -11 11 -38 20 -29 14 13 13 37 -1 37 -8 0 -16 -4 -19
-8z"/>
<path d="M726 1853 c-25 -32 -46 -63 -46 -70 0 -7 -6 -16 -13 -20 -13 -8 -47
-58 -47 -69 0 -3 18 12 40 35 22 22 46 41 52 41 9 0 8 4 -2 10 -13 9 -13 10 0
10 9 0 21 -5 27 -11 8 -8 14 -5 23 12 11 23 10 23 -4 5 -15 -18 -16 -18 -16
-2 0 10 -4 14 -12 10 -7 -5 -8 -3 -3 5 11 18 96 53 113 46 12 -4 12 -8 1 -22
-12 -14 -11 -15 11 -8 34 10 34 10 13 39 -10 14 -28 26 -40 26 -13 0 -23 5
-23 10 0 26 -33 5 -74 -47z"/>
<path d="M1499 1894 c-10 -13 -10 -17 0 -24 8 -4 11 -12 8 -17 -4 -6 4 -8 19
-5 14 2 24 1 23 -4 -4 -22 2 -44 12 -44 6 0 8 8 4 19 -8 26 32 51 41 26 4 -8
1 -21 -5 -29 -18 -22 -2 -46 30 -46 21 0 29 5 28 18 -2 37 -15 65 -32 68 -9 1
-24 9 -33 18 -20 20 -28 20 -20 1 3 -9 0 -15 -10 -15 -10 0 -14 6 -10 15 3 8
-3 19 -14 25 -24 13 -25 13 -41 -6z m131 -74 c-13 -8 -12 -10 3 -10 9 0 17 -7
17 -15 0 -19 -24 -20 -39 -2 -11 14 3 37 24 37 5 0 3 -5 -5 -10z"/>
<path d="M2163 1877 c9 -15 12 -29 7 -37 -5 -8 -7 -17 -5 -20 2 -4 -5 -13 -16
-21 -56 -38 -54 -35 -30 -42 11 -3 21 -1 21 4 0 5 8 9 18 8 10 0 12 -3 5 -6
-7 -2 -13 -12 -13 -21 0 -12 4 -10 17 8 10 14 17 41 16 62 -1 24 2 36 9 32 6
-4 0 7 -13 25 -27 36 -38 42 -16 8z"/>
<path d="M2280 1795 c-6 -7 -25 -15 -43 -17 -25 -2 -36 -12 -58 -50 -16 -26
-31 -63 -35 -83 -3 -19 -10 -38 -15 -40 -4 -3 -4 -16 1 -30 5 -14 5 -36 0 -54
-5 -19 -5 -31 1 -31 5 0 9 9 9 20 0 11 4 20 9 20 5 0 11 -9 14 -20 3 -11 10
-20 16 -20 12 0 -14 67 -35 91 -14 15 -10 29 8 29 5 0 8 -7 6 -16 -2 -10 3
-19 10 -21 8 -3 12 7 12 31 0 25 6 38 19 46 13 7 22 7 26 0 3 -5 12 -10 18
-10 7 0 4 5 -6 11 -9 6 -15 14 -13 18 3 4 -8 5 -25 3 -35 -5 -36 4 -6 49 18
27 30 34 56 35 18 1 39 -6 47 -14 27 -27 46 -61 39 -72 -3 -5 -1 -10 4 -10 24
0 5 48 -37 93 -22 23 -23 27 -8 27 20 0 57 -18 69 -34 5 -6 5 0 2 13 -5 17 -4
21 5 16 8 -5 11 -24 8 -56 -4 -40 -2 -49 11 -49 10 -1 6 -6 -11 -15 -19 -11
-29 -26 -34 -53 -9 -49 -29 -96 -50 -116 -9 -10 -17 -30 -18 -46 0 -17 -6 -30
-13 -30 -16 0 -17 -16 -1 -26 7 -4 8 -3 4 4 -4 7 -1 12 8 12 9 0 16 5 16 12 0
6 2 9 5 6 11 -11 -8 -68 -25 -73 -10 -3 -20 -15 -23 -26 -4 -14 -10 -18 -19
-13 -10 6 -10 4 -2 -7 8 -11 4 -21 -18 -44 -28 -30 -28 -30 -28 -6 0 14 -3 21
-7 17 -4 -4 -6 -26 -4 -50 1 -24 -2 -47 -8 -51 -6 -3 -11 -11 -11 -18 0 -6 15
6 33 28 17 22 41 49 52 60 11 11 20 23 20 26 0 20 43 78 71 97 19 12 34 20 34
18 0 -20 -28 -56 -61 -80 -22 -15 -38 -31 -35 -33 12 -12 95 68 101 98 4 17
13 33 21 36 42 16 66 158 39 236 -10 29 -13 60 -10 81 6 30 3 36 -29 61 -42
32 -89 41 -106 20z m123 -172 c-3 -7 -9 -13 -15 -13 -5 0 -7 -3 -5 -7 2 -5 -5
-17 -16 -27 -18 -17 -20 -18 -14 -2 4 10 10 28 13 41 4 15 13 23 24 22 10 -1
16 -7 13 -14z m5 -81 c-11 -13 -11 -14 1 -7 11 6 13 1 7 -31 -9 -51 -26 -94
-38 -94 -5 0 -18 5 -28 10 -18 10 -18 12 -1 63 10 28 29 70 42 92 l24 40 3
-28 c2 -16 -3 -36 -10 -45z m-71 -162 c-25 -21 -34 -11 -17 20 9 17 14 19 25
10 12 -10 11 -15 -8 -30z"/>
<path d="M1261 1766 c-9 -11 -9 -20 -2 -34 6 -11 8 -22 5 -25 -3 -3 -3 -15 1
-27 6 -20 8 -19 26 14 23 43 23 46 4 46 -8 0 -15 4 -15 9 0 12 32 24 39 14 9
-13 44 -16 36 -4 -3 6 -1 11 5 11 14 0 5 -32 -25 -87 -13 -23 -21 -44 -19 -46
3 -2 16 -2 29 1 20 3 25 10 23 30 -2 14 2 27 9 29 18 6 28 -44 13 -62 -7 -8
-10 -15 -7 -15 3 0 15 13 26 29 20 28 20 30 4 47 -10 9 -18 22 -18 28 0 6 -4
21 -8 34 -7 19 -15 22 -61 22 -34 0 -58 -5 -65 -14z"/>
<path d="M1447 1763 c-12 -11 -8 -22 13 -33 28 -15 68 11 46 29 -11 9 -15 8
-20 -4 -3 -8 -12 -15 -20 -15 -10 0 -13 6 -10 15 6 16 2 20 -9 8z"/>
<path d="M1095 1560 c-44 -47 -64 -70 -44 -52 19 17 40 32 47 32 7 0 12 5 12
12 0 7 17 29 37 50 20 21 35 39 32 40 -2 2 -40 -35 -84 -82z"/>
<path d="M2193 1590 c-23 -43 -17 -52 12 -20 10 11 21 18 25 15 4 -2 5 7 2 20
-6 34 -13 31 -39 -15z"/>
<path d="M6 1611 c-6 -9 41 -21 83 -21 20 1 22 3 11 9 -23 14 -88 22 -94 12z"/>
<path d="M523 1548 c-29 -44 -45 -83 -27 -65 3 3 17 2 30 -3 34 -13 114 -20
114 -9 0 4 -17 11 -37 14 -67 11 -69 13 -39 44 26 27 26 29 9 49 -18 20 -18
20 -50 -30z m24 -26 c-15 -14 -27 -22 -27 -16 0 14 41 57 48 49 3 -3 -6 -18
-21 -33z"/>
<path d="M436 1531 c-15 -35 -26 -65 -23 -67 6 -7 59 106 54 119 -1 5 -16 -18
-31 -52z"/>
<path d="M1270 1560 c0 -22 29 -26 65 -9 15 7 10 8 -17 4 -31 -5 -37 -3 -32
10 3 8 1 15 -5 15 -6 0 -11 -9 -11 -20z"/>
<path d="M86 1555 c6 -16 36 -19 68 -6 13 5 16 10 9 14 -7 4 -14 3 -18 -3 -3
-5 -11 -10 -16 -10 -6 0 -7 5 -4 10 3 6 -5 10 -19 10 -18 0 -24 -4 -20 -15z"/>
<path d="M2228 1553 c-6 -7 -13 -11 -17 -8 -4 2 -6 -9 -3 -24 2 -17 -2 -34
-12 -43 -14 -14 -14 -17 0 -22 9 -3 12 -2 9 4 -4 6 12 27 34 47 23 20 41 41
41 47 0 16 -39 15 -52 -1z"/>
<path d="M2263 1500 c-18 -20 -33 -46 -33 -56 0 -16 3 -15 17 6 10 14 17 28
15 33 -1 4 2 7 7 7 5 0 17 7 25 16 17 16 21 35 9 33 -5 0 -23 -18 -40 -39z"/>
<path d="M470 1444 c-6 -14 -10 -27 -10 -29 0 -9 56 8 69 20 21 21 5 31 -17
12 -24 -22 -31 -21 -25 3 8 29 -6 25 -17 -6z"/>
<path d="M1925 1440 c18 -109 18 -108 -6 -147 -12 -21 -33 -49 -46 -62 -13
-13 -23 -33 -23 -43 0 -11 -11 -33 -25 -50 -14 -16 -25 -38 -25 -49 0 -10 -7
-19 -15 -19 -8 0 -15 -5 -15 -11 0 -5 -10 1 -22 15 -21 23 -24 24 -37 10 -12
-14 -11 -15 8 -9 17 5 21 2 21 -17 0 -13 -3 -18 -8 -12 -10 17 -72 28 -72 14
0 -6 -6 -8 -12 -4 -7 4 -10 4 -6 -1 4 -4 -3 -16 -15 -26 -12 -10 -16 -18 -9
-19 6 0 21 9 33 21 11 11 22 19 23 17 1 -1 8 -16 14 -32 l13 -28 -36 6 c-23 5
-42 3 -51 -5 -9 -7 -14 -7 -14 -1 0 5 -9 8 -20 5 -21 -6 -28 -23 -8 -23 27 0
-5 -12 -81 -30 -108 -26 -125 -25 -146 6 -9 14 -15 27 -13 28 2 2 54 11 117
22 75 12 116 24 119 33 3 8 0 11 -6 7 -6 -3 -37 -11 -69 -17 -32 -5 -66 -12
-75 -15 -15 -4 -18 1 -18 34 0 26 -5 42 -15 45 -8 4 -12 15 -10 26 3 15 0 18
-13 14 -15 -6 -15 -5 -3 10 12 15 11 17 -7 17 -12 0 -27 8 -34 18 -7 11 -24
25 -38 32 -20 11 -18 5 14 -31 22 -24 48 -49 58 -55 10 -5 16 -13 12 -17 -4
-3 -3 -14 1 -24 5 -10 7 -23 6 -30 -1 -6 3 -14 9 -18 19 -11 10 -25 -16 -25
-14 0 -23 4 -19 10 3 6 -3 10 -13 10 -11 0 -25 7 -32 15 -7 8 -22 15 -34 15
-40 0 -64 12 -75 36 -6 13 -16 35 -23 49 -21 46 3 50 69 11 33 -19 66 -42 73
-51 21 -26 31 -17 15 14 -9 19 -26 32 -44 36 -22 5 -28 11 -24 22 5 13 0 15
-25 11 -37 -5 -46 18 -9 25 19 4 18 4 -5 6 -62 3 -86 -65 -48 -139 22 -43 36
-55 45 -40 10 16 35 12 29 -4 -4 -12 5 -16 43 -18 l48 -3 -30 -13 c-20 -9 -36
-10 -50 -3 -11 5 -36 14 -55 20 l-35 11 34 -27 c19 -16 54 -33 78 -39 42 -12
42 -11 31 10 -10 19 -10 20 5 7 29 -23 20 -64 -24 -114 -35 -40 -48 -48 -100
-59 -59 -12 -64 -33 -4 -22 51 9 145 46 140 54 -3 5 4 11 14 15 11 3 18 12 15
19 -5 14 18 24 130 60 27 9 58 16 69 16 11 0 35 10 54 21 34 21 48 23 35 3
-10 -14 -124 -72 -216 -110 -53 -21 -75 -35 -65 -39 21 -8 159 52 259 115 63
38 85 48 91 38 7 -10 12 -9 26 5 16 16 16 17 -4 17 -12 0 -23 8 -26 20 -8 30
7 32 32 4 16 -18 19 -29 12 -42 -11 -20 -3 -69 12 -79 7 -4 8 6 4 30 -3 21 -2
37 3 37 4 0 11 -17 14 -37 12 -65 17 -75 34 -69 15 5 15 4 1 -6 -14 -10 -14
-18 3 -92 10 -45 28 -96 39 -114 10 -19 17 -37 15 -41 -5 -8 7 -10 57 -12 29
0 38 -18 10 -20 -11 0 -13 -3 -5 -6 18 -7 15 -23 -5 -24 -11 0 -13 -3 -5 -6 6
-2 12 -8 12 -13 0 -9 -40 -25 -53 -22 -5 1 -6 -2 -2 -8 4 -6 16 -5 35 5 18 9
31 11 35 5 6 -10 -1 -14 -18 -11 -5 1 -6 -3 -2 -9 4 -6 16 -5 35 5 25 13 30
13 37 0 6 -9 13 -11 23 -5 12 7 10 11 -10 18 -14 5 -31 7 -38 5 -8 -4 -10 1
-5 13 6 17 5 17 -10 5 -15 -12 -17 -11 -17 3 0 9 4 16 10 16 5 0 7 7 4 15 -4
9 -1 15 7 15 7 0 -12 22 -43 50 -53 47 -56 54 -77 134 -11 47 -21 88 -21 91 0
3 18 5 40 5 30 0 38 -3 34 -14 -3 -8 -1 -17 5 -21 7 -4 8 1 4 12 -5 15 -3 16
8 5 7 -6 18 -12 24 -12 5 0 3 5 -5 11 -11 8 -8 9 15 5 25 -5 27 -4 12 5 -10 6
-24 8 -32 5 -15 -5 -39 17 -29 27 4 3 -10 1 -31 -4 -20 -6 -39 -8 -42 -6 -7 7
-32 108 -37 150 -5 33 -3 36 17 34 19 -2 21 2 19 29 -4 36 21 65 40 46 9 -9 6
-18 -12 -37 -13 -14 -20 -25 -16 -25 4 0 0 -10 -8 -22 -22 -31 -20 -47 9 -60
34 -15 43 -3 15 20 -22 18 -22 19 -5 45 9 15 25 27 35 27 21 0 33 43 17 59 -8
8 -7 11 3 11 7 0 11 3 8 6 -4 3 -16 1 -27 -6 -17 -8 -22 -8 -27 3 -7 21 11 61
57 123 38 52 41 59 34 100 -3 25 -13 59 -21 77 l-15 32 6 -35z"/>
<path d="M1623 1453 c10 -3 17 -14 17 -29 0 -28 -7 -30 -32 -7 -10 9 -18 11
-18 5 0 -14 37 -35 49 -28 5 3 11 19 13 36 4 27 2 30 -21 29 -17 -1 -20 -3 -8
-6z"/>
<path d="M2459 1448 c-1 -2 -3 -13 -4 -26 -2 -21 8 -22 11 -1 3 19 4 19 18 7
11 -10 11 -16 2 -27 -6 -8 4 -4 22 9 27 20 35 22 42 10 5 -8 6 -18 3 -24 -3
-5 -1 -6 6 -2 6 4 9 11 6 16 -3 5 -1 11 5 15 5 3 10 1 10 -6 0 -9 3 -9 14 0 9
8 16 8 20 2 4 -6 14 -7 23 -4 11 5 14 3 8 -6 -6 -10 -3 -11 12 -2 17 8 24 6
43 -14 l22 -24 31 22 c22 16 31 19 34 9 4 -10 8 -10 21 0 13 11 15 10 9 -5 -6
-16 -5 -16 26 -1 30 16 31 16 18 1 -9 -12 -10 -17 -2 -17 7 0 9 -5 5 -12 -4
-8 -3 -10 2 -5 5 5 10 13 10 18 3 19 4 19 17 7 12 -10 10 -15 -7 -31 -17 -14
-15 -14 14 3 43 24 57 26 39 3 -13 -16 -13 -16 11 0 40 28 47 19 10 -14 l-35
-30 35 25 c20 14 36 35 37 46 2 19 0 20 -14 8 -12 -9 -15 -10 -9 0 5 9 -3 11
-34 9 -23 -2 -43 0 -45 3 -3 4 -34 7 -70 6 -36 -1 -65 1 -65 5 0 4 -15 6 -32
5 -18 -1 -44 2 -57 6 -15 5 -29 4 -37 -3 -9 -8 -14 -8 -14 -1 0 6 -8 11 -17
11 -10 -1 -37 2 -60 6 -38 5 -42 4 -37 -12 5 -17 5 -17 -6 0 -9 14 -36 24 -41
15z m291 -38 c0 -17 -24 -29 -37 -19 -20 17 -16 25 12 25 14 0 25 -3 25 -6z"/>
<path d="M1360 1427 c-43 -23 -84 -50 -110 -73 -14 -12 -54 -37 -90 -55 -82
-42 -100 -57 -99 -83 1 -17 2 -18 6 -3 2 10 30 31 61 47 92 49 123 68 146 89
25 23 41 28 30 9 -5 -8 -1 -8 12 2 30 22 30 24 9 16 -14 -5 -11 1 10 18 44 37
50 33 32 -19 -8 -22 -86 -75 -110 -75 -8 0 -20 -7 -27 -15 -7 -8 -21 -15 -31
-15 -11 0 -19 -3 -19 -8 0 -8 -26 -23 -72 -42 -16 -7 -28 -16 -28 -21 0 -13
14 -11 36 6 10 8 27 15 36 15 9 0 23 6 30 13 7 6 49 30 93 53 77 39 138 99
117 113 -5 3 -8 14 -6 24 1 9 2 17 1 17 -1 0 -13 -6 -27 -13z"/>
<path d="M824 1416 c-59 -19 -114 -26 -114 -16 0 5 -24 9 -52 8 -29 -1 -60 2
-68 6 -9 3 -24 0 -35 -8 -18 -14 -17 -15 19 -9 l40 6 -23 -31 c-15 -22 -18
-32 -9 -32 30 1 342 70 336 75 -13 11 -60 11 -94 1z"/>
<path d="M432 1335 c-6 -30 -8 -63 -5 -72 5 -12 2 -15 -10 -10 -9 3 -19 2 -22
-4 -4 -5 -3 -9 2 -8 4 1 30 1 56 0 55 -1 56 -21 2 -21 -19 0 -37 -5 -41 -12
-5 -8 5 -9 37 -3 24 4 89 9 143 11 73 2 104 7 115 19 14 13 2 15 -116 15 -141
0 -165 8 -139 46 21 31 26 65 11 80 -7 8 -16 14 -18 14 -2 0 -9 -25 -15 -55z"/>
<path d="M700 1319 c-19 -16 -20 -19 -6 -15 10 4 24 2 31 -4 9 -8 15 -8 20 0
3 5 -1 10 -9 10 -10 0 -13 6 -10 15 8 20 4 19 -26 -6z"/>
<path d="M835 1285 c-33 -30 -57 -56 -54 -59 3 -3 32 18 65 48 32 30 57 56 54
59 -3 3 -32 -19 -65 -48z"/>
<path d="M1642 1306 c-34 -38 -37 -51 -5 -28 16 11 35 27 41 35 20 23 -15 17
-36 -7z"/>
<path d="M1976 1285 c4 -16 1 -32 -8 -43 -29 -35 -38 -70 -23 -86 8 -8 12 -21
9 -29 -3 -10 6 -22 25 -33 25 -15 29 -22 24 -46 -3 -18 1 -44 12 -69 14 -30
16 -42 7 -51 -7 -7 -12 -22 -12 -35 0 -13 -5 -23 -11 -23 -5 0 -7 5 -3 12 4 6
3 8 -3 5 -6 -4 -17 1 -24 10 -12 15 -12 16 6 9 17 -6 18 -5 7 6 -11 11 -16 10
-26 -5 -12 -15 -15 -15 -26 -2 -7 8 -18 15 -24 14 -7 0 -6 -2 2 -6 6 -2 9 -10
6 -15 -4 -6 -2 -8 3 -5 12 7 36 -16 28 -26 -3 -4 -2 -5 2 -2 3 3 12 0 20 -7
11 -9 12 -7 6 8 -6 17 -5 18 11 4 17 -13 20 -13 33 6 11 18 22 21 61 18 l47
-3 -44 9 c-43 9 -66 20 -43 20 6 0 9 7 5 16 -5 15 -3 14 21 -1 15 -10 29 -15
32 -12 3 3 -4 10 -15 17 -12 6 -19 15 -16 20 3 6 0 7 -8 4 -8 -3 -18 -1 -22 5
-3 6 -1 11 6 11 8 0 8 4 2 13 -15 19 -24 49 -13 42 15 -9 12 1 -10 42 -11 21
-23 59 -26 85 -5 34 -11 48 -23 49 -13 0 -14 1 -1 6 31 11 39 32 23 64 -18 36
-26 38 -17 4z"/>
<path d="M476 1282 c17 -20 28 -22 126 -22 60 0 110 4 113 10 4 6 -6 10 -22
11 -15 0 -66 1 -113 2 -47 1 -93 6 -104 11 -18 9 -18 8 0 -12z"/>
<path d="M747 1235 c-30 -28 -43 -45 -33 -45 11 0 16 -9 16 -27 0 -25 -1 -25
-19 -9 -19 17 -39 7 -27 -13 3 -5 -1 -22 -9 -37 -8 -16 -15 -32 -15 -36 0 -7
-72 -129 -130 -222 -16 -26 -30 -56 -29 -65 0 -10 2 -11 6 -3 2 6 11 12 19 12
8 0 14 7 14 15 0 21 7 19 72 -12 32 -16 58 -34 58 -42 0 -8 3 -12 6 -8 14 14
-10 48 -51 72 -25 14 -45 30 -45 35 0 11 44 92 70 130 10 14 26 45 37 70 11
25 34 60 51 78 29 31 30 35 17 56 -13 20 -12 25 16 59 17 20 29 37 27 37 -2
-1 -25 -21 -51 -45z"/>
<path d="M1660 1239 c-25 -22 -36 -36 -25 -30 28 15 91 71 80 71 -6 0 -30 -19
-55 -41z"/>
<path d="M1417 1139 c-15 -17 -27 -33 -27 -36 0 -11 54 39 56 53 3 19 3 19
-29 -17z"/>
<path d="M2182 1145 c4 -5 3 -14 -4 -22 -6 -8 -7 -13 -2 -12 20 4 34 -2 32
-12 -2 -6 7 -12 18 -14 22 -1 27 16 9 32 -4 4 -5 2 0 -6 5 -9 3 -12 -6 -9 -8
3 -13 10 -12 16 2 6 -7 17 -20 23 -12 6 -19 8 -15 4z"/>
<path d="M592 1118 c2 -7 -2 -12 -8 -11 -7 1 -10 -6 -7 -17 8 -29 -4 -25 -22
8 -9 15 -13 18 -10 7 4 -11 10 -28 12 -37 3 -10 8 -18 12 -18 12 0 39 70 30
76 -5 3 -8 0 -7 -8z"/>
<path d="M2154 1049 c-4 -7 -3 -14 3 -16 6 -2 9 -13 6 -23 -3 -11 -1 -20 5
-20 6 0 9 14 7 31 -5 38 -10 45 -21 28z"/>
<path d="M515 1025 c4 -11 9 -29 12 -40 4 -18 3 -18 -16 4 -12 13 -21 19 -21
13 0 -6 6 -17 14 -25 10 -10 11 -18 4 -25 -6 -6 -6 -12 1 -16 11 -7 46 63 36
72 -3 3 -5 1 -5 -4 -1 -5 -8 2 -16 16 -10 17 -13 18 -9 5z"/>
<path d="M1087 1033 c-5 -8 22 -108 27 -102 2 2 6 28 10 57 6 47 5 52 -13 52
-11 0 -22 -3 -24 -7z"/>
<path d="M1040 988 c-11 -18 -20 -39 -20 -46 0 -7 -9 -20 -20 -29 -20 -18 -28
-39 -10 -28 6 3 10 1 10 -4 0 -6 -6 -11 -14 -11 -8 0 -18 -5 -22 -12 -5 -7 -2
-9 8 -5 26 10 9 -31 -22 -53 -27 -19 -46 -60 -41 -89 1 -8 -2 -10 -10 -5 -7 4
-10 3 -6 -4 4 -5 -6 -40 -23 -77 -17 -37 -28 -70 -25 -75 8 -13 -22 -19 -34
-7 -10 9 -15 8 -25 -5 -9 -12 -16 -14 -23 -7 -12 12 -43 -31 -46 -62 -1 -10
-4 -19 -7 -19 -4 0 -7 -6 -7 -12 -1 -7 -11 -37 -22 -66 -33 -82 -11 -61 44 43
28 52 56 97 63 100 7 2 10 1 7 -4 -7 -12 28 -23 48 -15 20 7 57 69 57 93 0 10
11 43 24 72 13 30 47 110 76 179 29 69 54 126 56 128 1 2 10 -23 19 -55 29
-100 56 -137 72 -97 4 10 -1 22 -11 30 -10 7 -15 18 -11 25 6 8 10 7 17 -5 5
-9 16 -16 24 -16 8 0 13 4 10 9 -4 5 0 11 6 14 9 3 5 13 -13 33 -26 30 -38 79
-16 71 7 -2 11 -11 11 -20 -1 -9 2 -14 7 -11 5 3 14 2 21 -2 8 -5 6 -10 -8
-15 -18 -7 -18 -8 2 -8 13 -1 24 6 27 18 6 23 -10 42 -29 34 -8 -3 -14 1 -14
10 0 8 -6 20 -14 26 -12 10 -16 0 -26 -59 -6 -38 -17 -73 -22 -77 -7 -3 -8 -1
-4 5 4 6 -5 34 -19 63 -15 28 -24 57 -21 65 10 25 -4 15 -24 -18z"/>
<path d="M2618 1002 c8 -5 14 -13 14 -17 0 -4 -6 -12 -14 -16 -10 -7 -10 -9 2
-9 13 0 13 -1 0 -10 -13 -9 -13 -10 0 -10 13 0 13 -1 0 -11 -10 -7 -11 -9 -2
-7 8 2 13 7 12 12 -1 5 4 13 12 17 8 5 8 9 2 9 -6 0 -11 10 -10 22 0 11 -6 23
-14 25 -12 4 -12 3 -2 -5z"/>
<path d="M476 965 c3 -11 8 -32 11 -48 3 -15 10 -30 15 -33 12 -7 3 25 -18 71
-8 17 -12 21 -8 10z"/>
<path d="M2150 967 c0 -7 5 -18 11 -24 9 -9 3 -14 -22 -21 -26 -8 -29 -10 -11
-11 13 -1 20 -5 17 -11 -3 -5 1 -10 10 -10 9 0 13 -4 10 -10 -3 -6 1 -7 9 -4
19 7 21 40 4 77 -14 28 -28 36 -28 14z"/>
<path d="M1202 884 c-18 -37 -31 -68 -28 -71 2 -3 9 5 16 16 6 12 18 21 28 21
9 1 31 7 47 15 l30 15 -27 -4 c-32 -4 -34 3 -13 44 14 28 14 30 -3 30 -12 0
-28 -21 -50 -66z"/>
<path d="M2575 870 c-18 -8 -18 -9 -2 -9 10 -1 15 -5 12 -11 -3 -5 1 -10 9
-10 9 0 16 -5 16 -11 0 -5 5 -7 11 -4 6 5 3 13 -10 22 -12 8 -19 19 -16 24 7
10 7 10 -20 -1z"/>
<path d="M2044 808 c-4 -13 -7 -31 -5 -41 1 -10 -9 -38 -23 -62 -13 -25 -21
-47 -17 -50 8 -4 24 23 34 55 3 11 8 8 15 -10 10 -24 11 -24 12 10 1 36 29 80
50 80 10 0 10 -3 0 -15 -18 -21 -7 -19 20 5 25 22 40 19 22 -3 -7 -8 -8 -17
-4 -21 4 -4 1 -6 -7 -4 -8 2 -14 -7 -16 -24 -2 -16 0 -28 5 -28 5 0 12 -20 15
-44 11 -73 -37 -130 -92 -109 -29 11 -33 25 -13 54 27 36 14 43 -21 11 -21
-18 -29 -34 -27 -51 3 -22 10 -27 48 -33 52 -9 95 4 112 36 18 33 20 123 2
130 -18 7 -18 32 1 40 18 7 20 60 3 74 -7 5 -34 13 -60 16 -42 6 -47 5 -54
-16z"/>
<path d="M451 761 c-18 -35 -20 -45 -9 -52 7 -5 14 -4 16 1 2 6 9 7 14 4 7 -4
8 -2 4 4 -4 6 -3 20 2 29 5 10 6 27 2 38 -6 17 -10 14 -29 -24z"/>
<path d="M540 766 c0 -14 -5 -28 -10 -31 -6 -4 -8 -10 -5 -15 3 -5 -14 -22
-37 -38 -50 -35 -86 -72 -70 -72 7 0 12 4 12 9 0 5 23 26 51 46 28 20 56 50
62 66 8 21 16 27 27 23 22 -9 84 -23 87 -20 5 4 -93 56 -106 56 -6 0 -11 -11
-11 -24z"/>
<path d="M1421 773 c8 -13 17 -23 22 -23 4 0 5 5 2 10 -3 6 -1 10 5 10 6 0 13
-7 16 -15 4 -8 9 -15 13 -15 4 0 8 7 8 15 0 8 -3 13 -5 10 -3 -3 -11 0 -19 7
-7 6 -16 8 -20 5 -3 -4 -13 -1 -21 6 -13 11 -14 9 -1 -10z"/>
<path d="M1322 760 c7 -11 16 -20 21 -20 4 0 5 5 2 10 -3 6 -1 10 5 10 6 0 13
-7 16 -15 8 -19 21 -19 21 0 0 8 -4 12 -8 9 -4 -2 -11 1 -14 7 -4 5 -13 8 -21
5 -8 -3 -14 -1 -14 4 0 6 -5 10 -10 10 -6 0 -5 -8 2 -20z"/>
<path d="M1911 778 c2 -2 19 -16 37 -33 26 -24 32 -26 26 -10 -7 18 -6 19 9 6
10 -8 20 -11 24 -7 3 3 1 6 -6 6 -7 0 -10 4 -6 9 3 6 -6 8 -21 5 -18 -3 -23
-1 -18 7 4 7 3 9 -4 5 -6 -3 -13 -2 -17 4 -3 5 -11 10 -17 10 -6 0 -9 -1 -7
-2z"/>
<path d="M1020 764 c0 -6 9 -23 20 -37 16 -20 17 -26 6 -30 -8 -3 -16 0 -18 8
-2 8 -8 11 -14 7 -8 -5 -3 -13 14 -26 14 -11 22 -14 17 -6 -5 8 -3 11 6 8 8
-3 13 -13 13 -22 -1 -10 1 -15 4 -12 3 3 12 0 20 -7 13 -10 14 -9 4 9 -6 12
-8 25 -4 29 4 3 0 5 -8 3 -8 -2 -14 2 -15 7 0 15 -45 82 -45 69z"/>
<path d="M1760 750 c-8 -5 -15 -15 -15 -22 -1 -7 -6 -12 -13 -11 -6 2 -9 -4
-6 -12 4 -8 14 -15 23 -15 13 0 13 2 2 9 -11 7 -10 11 5 20 13 7 15 10 5 11
-11 0 -9 4 5 15 21 16 17 20 -6 5z"/>
<path d="M1628 734 c12 -8 20 -20 17 -25 -4 -5 2 -6 11 -2 12 4 14 8 5 11 -8
3 -7 8 6 19 17 13 16 13 -4 3 -16 -7 -23 -7 -23 0 0 5 -8 10 -17 10 -14 0 -13
-3 5 -16z"/>
<path d="M1310 727 c0 -5 7 -15 15 -24 16 -16 11 -38 -7 -27 -6 4 -6 -1 1 -14
6 -12 16 -24 22 -28 8 -4 8 -1 0 14 -9 16 -8 23 3 29 10 6 8 13 -10 33 -13 13
-24 21 -24 17z"/>
<path d="M1425 716 c16 -12 17 -16 6 -30 -11 -13 -10 -18 3 -31 14 -15 16 -15
16 -1 0 9 -6 16 -12 16 -9 1 -8 4 2 13 17 13 26 42 11 33 -5 -4 -12 -2 -16 4
-3 5 -11 10 -18 10 -6 0 -2 -6 8 -14z"/>
<path d="M1362 713 c-10 -4 -9 -8 5 -18 14 -11 15 -15 4 -29 -11 -13 -10 -18
3 -31 9 -9 16 -12 16 -6 0 5 -5 13 -12 17 -8 5 -7 10 3 18 18 14 23 37 7 34
-7 -2 -12 3 -10 10 1 6 1 12 0 11 -2 0 -9 -3 -16 -6z"/>
<path d="M1135 690 c3 -4 -2 -10 -10 -14 -17 -6 -20 -32 -6 -41 6 -3 8 3 6 14
-3 14 4 22 23 29 26 8 26 9 4 14 -12 4 -20 3 -17 -2z"/>
<path d="M1264 684 c9 -8 13 -20 10 -26 -4 -6 -2 -8 4 -4 6 3 13 -3 17 -14 3
-11 11 -20 16 -20 5 0 4 10 -3 22 -19 33 -41 58 -51 58 -5 0 -1 -7 7 -16z"/>
<path d="M2373 689 c9 -5 17 -15 17 -20 0 -6 -6 -7 -12 -3 -10 6 -10 4 0 -7 6
-7 12 -17 12 -22 0 -4 -6 -5 -12 -1 -8 5 -8 1 2 -12 8 -10 16 -21 17 -23 2 -2
1 10 -1 27 -2 18 1 32 7 32 5 0 2 9 -8 20 -10 11 -23 20 -29 20 -6 0 -3 -5 7
-11z"/>
<path d="M537 683 c-2 -4 -17 -48 -32 -98 -14 -49 -39 -106 -54 -125 -53 -68
-72 -110 -82 -177 -11 -74 -27 -123 -40 -123 -12 0 -22 -66 -13 -82 5 -7 8
-22 7 -33 -1 -17 -1 -17 4 -2 3 13 10 16 21 11 23 -9 122 -5 119 6 -1 3 16 22
38 43 25 24 31 34 18 27 -13 -6 -23 -7 -23 -3 0 4 -6 -1 -13 -11 -10 -14 -21
-16 -56 -10 -23 4 -45 13 -48 20 -3 8 -10 14 -17 14 -6 0 2 -12 17 -25 16 -14
33 -23 38 -20 5 4 14 3 21 -1 26 -16 -45 -24 -77 -9 l-30 15 24 -20 c17 -15
19 -20 7 -20 -8 0 -23 11 -32 25 -15 23 -15 27 9 67 14 25 29 73 35 116 9 62
18 86 61 151 34 51 61 109 81 171 25 83 32 119 17 93z"/>
<path d="M2678 685 c-3 -3 -4 -19 -2 -35 3 -21 -1 -30 -14 -32 -14 -3 -14 -5
4 -9 18 -6 20 -2 20 37 0 47 0 47 -8 39z"/>
<path d="M821 663 c-1 -7 -4 -12 -8 -12 -20 3 -31 -2 -37 -18 -6 -15 -4 -15
14 2 16 14 20 15 20 4 0 -8 -5 -20 -12 -27 -7 -7 -8 -12 -2 -12 15 0 37 45 31
62 -4 9 -6 10 -6 1z"/>
<path d="M1174 661 c3 -5 -1 -12 -10 -15 -17 -6 -10 -26 9 -26 7 0 6 4 -3 10
-13 8 -13 10 1 10 9 0 19 -7 23 -15 3 -8 10 -15 16 -15 6 0 4 7 -4 16 -9 8
-14 19 -11 24 3 4 -2 11 -11 14 -8 3 -13 2 -10 -3z"/>
<path d="M1764 655 c-18 -15 -18 -15 0 -8 14 5 17 3 11 -7 -5 -8 -4 -11 1 -7
6 3 16 2 24 -4 14 -8 11 -10 -15 -9 -9 1 -65 -30 -65 -36 0 -2 14 2 30 11 17
9 30 13 30 10 0 -3 13 1 29 9 16 9 32 12 36 8 5 -4 5 -2 1 5 -4 7 -14 9 -23 6
-11 -4 -14 -3 -9 6 6 8 2 11 -10 9 -11 -2 -18 2 -16 10 3 16 0 15 -24 -3z"/>
<path d="M2479 663 c-7 -45 -4 -81 7 -98 16 -22 16 -22 19 27 1 31 -1 36 -12
26 -11 -9 -13 -6 -8 20 3 18 3 32 0 32 -3 0 -6 -3 -6 -7z"/>
<path d="M2529 658 c-6 -10 -4 -136 2 -133 11 7 19 -23 12 -42 -5 -11 1 -9 16
6 16 16 24 37 26 67 1 25 0 46 -4 48 -4 3 -7 -16 -7 -41 0 -26 -4 -48 -10 -50
-7 -2 -10 7 -9 22 2 14 -1 23 -6 19 -5 -3 -6 -10 -3 -16 4 -6 2 -8 -4 -4 -6 4
-9 31 -8 66 3 51 1 69 -5 58z"/>
<path d="M1525 636 c11 -8 26 -12 35 -9 8 2 4 -2 -10 -10 -25 -15 -45 -13 -35
4 3 5 -1 6 -10 3 -14 -6 -14 -8 2 -19 9 -7 23 -11 30 -8 16 6 45 -16 37 -28
-3 -5 3 -6 12 -2 12 4 14 8 5 11 -8 3 -7 8 6 19 17 13 16 13 -4 4 -14 -7 -24
-8 -28 -1 -6 9 1 14 16 12 4 -1 5 7 2 18 -4 15 -9 17 -23 10 -13 -7 -21 -7
-25 0 -3 5 -11 10 -18 10 -6 0 -2 -6 8 -14z"/>
<path d="M1612 633 c-10 -4 -8 -9 7 -20 12 -8 19 -19 16 -24 -4 -5 2 -6 11 -2
12 4 14 8 5 11 -8 3 -7 8 6 19 17 13 16 13 -4 3 -21 -10 -27 -7 -24 13 0 4 0
7 -1 6 -2 0 -9 -3 -16 -6z"/>
<path d="M33 547 c0 -43 2 -76 4 -73 7 7 9 114 2 133 -3 10 -6 -17 -6 -60z"/>
<path d="M1442 603 c-8 -3 -5 -11 10 -24 13 -10 19 -18 14 -19 -6 0 -1 -6 9
-14 17 -12 24 -12 46 0 15 7 30 10 35 6 5 -4 3 0 -4 9 -6 9 -9 19 -5 23 4 4
-1 4 -11 0 -13 -5 -14 -9 -6 -14 9 -5 5 -10 -11 -15 -25 -8 -36 -5 -31 8 1 4
-3 7 -10 7 -6 0 -3 7 8 16 18 14 18 15 -3 4 -21 -10 -27 -7 -24 13 0 4 0 7 -1
6 -2 0 -9 -3 -16 -6z"/>
<path d="M1831 593 c11 -12 5 -17 -15 -14 -5 1 -4 -5 4 -13 11 -15 7 -20 -12
-17 -5 0 -8 -3 -8 -9 0 -5 5 -10 12 -10 17 0 4 -10 -20 -15 -11 -2 -30 -8 -41
-14 -13 -7 -22 -8 -26 -1 -3 5 -5 10 -3 11 2 0 10 2 20 4 9 2 24 8 35 14 14 8
14 11 3 11 -12 0 -10 4 4 15 11 8 14 15 7 15 -7 0 -10 4 -7 8 3 5 -1 9 -9 9
-11 0 -12 -4 -4 -14 11 -12 5 -17 -13 -14 -5 0 -8 -3 -8 -9 0 -5 5 -10 12 -10
14 0 4 -11 -14 -14 -7 -2 -24 -8 -38 -13 -27 -11 -44 -7 -34 8 3 5 10 6 16 3
6 -4 8 -2 4 4 -4 7 -14 6 -33 -3 -27 -14 -48 -11 -38 6 3 5 -1 6 -10 3 -14 -6
-14 -8 1 -19 10 -7 25 -10 35 -8 9 3 20 0 23 -5 3 -6 15 -8 25 -5 10 3 22 0
25 -6 4 -5 14 -7 22 -4 9 3 20 0 24 -7 6 -9 12 -10 26 -1 16 10 16 11 2 9 -9
-2 -17 0 -17 5 -1 4 1 7 4 7 3 0 18 6 34 14 16 9 31 13 34 10 3 -3 3 3 0 15
-3 12 -10 21 -15 21 -5 0 -6 5 -3 10 8 14 35 -6 35 -26 0 -7 6 -11 14 -8 11 4
7 12 -15 33 -16 15 -27 30 -24 33 3 2 -2 5 -10 5 -11 0 -12 -4 -4 -14z"/>
<path d="M426 571 c-21 -15 -42 -35 -48 -44 -5 -10 16 1 46 24 31 23 56 43 56
45 0 9 -18 1 -54 -25z"/>
<path d="M2175 568 c-10 -32 -45 -68 -67 -68 -10 0 -18 -5 -18 -10 0 -7 -6 -7
-20 0 -25 13 -25 9 -1 -18 21 -25 33 -29 25 -7 -7 18 7 20 27 3 12 -11 12 -11
2 1 -10 12 -8 16 10 25 22 11 64 82 54 92 -3 3 -8 -5 -12 -18z"/>
<path d="M74 565 c-3 -8 -3 -19 1 -25 3 -5 1 -10 -5 -10 -7 0 -8 -6 -2 -16 5
-9 7 -26 4 -38 -3 -12 -2 -18 2 -14 7 6 15 118 8 118 -1 0 -5 -7 -8 -15z"/>
<path d="M1420 570 c-13 -9 -13 -10 0 -10 9 -1 5 -6 -10 -14 -25 -15 -45 -12
-35 5 3 5 -1 6 -10 3 -14 -6 -14 -8 2 -19 17 -13 37 -10 59 6 6 5 15 5 20 1 4
-4 3 0 -4 9 -6 9 -9 19 -5 22 9 10 0 8 -17 -3z"/>
<path d="M184 529 c1 -25 6 -50 10 -57 4 -7 3 -12 -3 -12 -7 0 -7 -8 -2 -22 4
-13 7 -31 5 -41 -1 -9 2 -14 8 -11 5 3 7 9 4 12 -3 3 0 12 7 20 10 13 9 14 -1
8 -9 -5 -12 0 -10 21 1 16 -1 34 -6 41 -4 7 -2 12 6 12 10 0 10 2 -1 9 -8 5
-11 15 -8 23 3 8 1 21 -4 29 -5 9 -7 -3 -5 -32z"/>
<path d="M992 553 c-10 -4 -10 -8 -1 -19 6 -7 8 -21 5 -30 -5 -12 -2 -15 10
-10 9 4 22 2 28 -3 8 -7 12 -4 12 8 0 12 -6 17 -17 14 -17 -5 -33 22 -23 38 6
10 5 10 -14 2z"/>
<path d="M1212 530 c10 -15 10 -22 0 -32 -9 -9 -12 -9 -12 1 0 7 -6 19 -14 27
-13 12 -15 12 -13 -5 1 -11 3 -18 6 -16 2 3 10 -4 18 -15 8 -11 20 -20 26 -20
7 0 6 4 -3 10 -12 7 -10 11 10 19 14 5 20 10 13 10 -6 1 -15 10 -18 21 -3 11
-11 20 -16 20 -5 0 -4 -9 3 -20z"/>
<path d="M1560 540 c-13 -8 -13 -10 0 -10 20 0 0 -17 -25 -22 -12 -2 -19 2
-18 9 2 7 -4 10 -12 6 -14 -5 -13 -7 2 -18 9 -7 23 -10 31 -7 8 3 17 0 21 -7
6 -8 14 -9 32 -1 21 8 21 9 3 7 -11 -1 -21 3 -21 8 -1 6 4 9 10 7 7 -2 6 2 -1
11 -7 8 -9 17 -5 20 9 10 0 8 -17 -3z"/>
<path d="M644 532 c-18 -13 -23 -40 -9 -52 19 -15 31 -7 44 31 9 27 9 30 -4
19 -8 -7 -13 -15 -11 -19 7 -11 -12 -36 -20 -28 -4 4 -2 18 4 32 13 27 12 28
-4 17z"/>
<path d="M2490 524 c0 -12 -3 -14 -12 -6 -10 8 -13 1 -14 -30 -1 -24 2 -35 6
-28 5 7 6 19 3 27 -3 7 0 13 6 13 6 0 11 -5 11 -12 0 -21 13 1 15 27 2 14 -1
25 -6 25 -5 0 -9 -7 -9 -16z"/>
<path d="M145 509 c2 -10 7 -24 10 -29 3 -6 2 -10 -4 -10 -6 0 -8 -7 -4 -16 3
-9 6 -28 7 -42 1 -14 8 -27 16 -29 11 -3 12 -2 3 4 -7 5 -11 27 -10 51 2 24
-1 48 -5 55 -4 6 -2 14 3 18 7 4 5 8 -4 12 -11 4 -15 0 -12 -14z"/>
<path d="M1293 519 c9 -5 17 -14 17 -20 0 -5 9 -20 20 -31 15 -16 17 -24 8
-29 -7 -4 -16 -5 -22 -2 -5 3 -6 1 -2 -5 5 -8 13 -8 32 0 21 10 22 13 9 20 -8
5 -15 16 -15 23 0 8 -4 15 -9 15 -5 0 -13 9 -16 20 -3 11 -14 20 -23 20 -16
-1 -15 -2 1 -11z"/>
<path d="M1111 504 c7 -8 7 -13 -1 -16 -5 -1 -2 -8 8 -14 14 -9 23 -9 39 0 19
10 19 12 5 26 -14 13 -15 12 -10 -2 7 -17 -17 -34 -27 -18 -3 4 1 11 7 13 10
4 10 6 0 6 -7 1 -11 5 -8 9 3 5 -1 9 -9 9 -11 0 -12 -4 -4 -13z"/>
<path d="M2336 499 c-10 -10 -22 -16 -27 -14 -4 3 -10 1 -13 -4 -8 -12 13 -8
43 8 21 12 26 11 37 -3 8 -11 14 -13 19 -7 3 6 1 11 -6 11 -8 0 -8 4 1 15 9
10 9 15 1 15 -6 0 -11 -5 -11 -11 0 -8 -4 -8 -12 -1 -9 6 -19 4 -32 -9z"/>
<path d="M2630 510 c0 -5 -7 -10 -16 -10 -8 0 -12 -5 -9 -10 4 -6 11 -8 16 -5
5 4 9 2 9 -4 0 -5 -8 -12 -17 -15 -14 -4 -14 -4 2 -3 14 2 20 10 22 30 1 15 0
27 -3 27 -2 0 -4 -4 -4 -10z"/>
<path d="M406 480 c-27 -15 -56 -36 -65 -45 -19 -19 62 26 99 55 35 27 24 24
-34 -10z"/>
<path d="M974 476 c1 -16 7 -31 14 -32 7 -1 8 0 2 3 -11 5 -4 23 10 23 16 0
16 -35 0 -48 -12 -10 -10 -10 14 0 15 7 23 14 17 16 -6 2 -11 12 -11 23 0 12
-7 19 -19 19 -11 0 -22 6 -24 13 -3 6 -4 -1 -3 -17z"/>
<path d="M1264 488 c-4 -7 -3 -8 4 -4 6 3 16 -3 22 -14 10 -19 4 -26 -23 -21
-5 1 -6 -3 -2 -8 4 -7 14 -6 30 1 21 9 22 13 9 25 -8 8 -14 19 -14 24 0 13
-17 11 -26 -3z"/>
<path d="M1850 480 c-8 -5 -18 -6 -22 -4 -4 3 -8 0 -8 -6 0 -6 10 -8 25 -4 16
4 25 2 25 -5 0 -7 9 -9 24 -5 13 3 27 1 30 -5 4 -5 13 -8 21 -4 9 3 22 0 29
-6 12 -10 13 -8 9 8 -4 16 -9 18 -28 11 -17 -7 -25 -5 -29 6 -4 11 -10 12 -25
4 -15 -8 -22 -7 -28 4 -6 10 -13 12 -23 6z"/>
<path d="M2659 483 c0 -5 -2 -19 -4 -33 -1 -14 1 -32 6 -40 7 -12 8 -11 6 5
-1 11 3 21 8 22 6 0 9 -3 8 -8 -2 -5 2 -9 8 -9 6 0 8 9 4 20 -6 18 0 23 25 22
3 0 11 6 18 14 16 18 4 17 -28 -1 -33 -19 -51 -19 -44 0 4 8 3 15 0 15 -3 0
-6 -3 -7 -7z"/>
<path d="M2946 468 c-20 -28 -3 -56 20 -33 8 7 14 17 14 21 0 5 -5 3 -12 -4
-21 -21 -31 -13 -14 13 20 31 13 33 -8 3z"/>
<path d="M2569 468 c13 -18 7 -23 -21 -19 -4 0 -5 -6 -2 -14 10 -24 -12 -17
-24 8 -6 12 -11 16 -11 9 -1 -7 -5 -11 -10 -8 -5 3 -12 -1 -15 -9 -4 -12 -2
-14 11 -7 12 7 21 4 34 -12 9 -11 15 -24 12 -29 -2 -4 -13 3 -22 15 l-18 22
-12 -25 c-11 -23 -11 -23 3 -5 14 17 20 15 18 -5 -1 -3 10 -12 24 -19 18 -10
27 -11 36 -2 8 8 5 9 -13 5 -24 -6 -24 -6 -5 15 11 12 28 22 38 22 11 0 26 6
34 14 20 21 17 32 -3 14 -10 -8 -30 -18 -45 -22 -22 -5 -26 -3 -22 9 3 8 10
13 14 10 16 -10 18 24 2 37 -15 12 -16 11 -3 -4z"/>
<path d="M1405 460 c-4 -6 -12 -7 -18 -3 -7 4 -6 0 2 -10 11 -14 11 -17 0 -18
-8 -1 -18 -1 -22 0 -5 1 -6 -3 -2 -8 4 -7 15 -6 31 1 17 8 21 14 12 19 -9 6
-5 11 12 18 17 6 19 10 8 10 -9 1 -20 -4 -23 -9z"/>
<path d="M1754 449 c21 -16 24 -24 15 -30 -7 -4 -17 -5 -23 -2 -5 3 -6 1 -2
-5 5 -8 13 -8 30 -1 l23 11 -24 24 c-13 13 -29 24 -35 24 -6 0 2 -10 16 -21z"/>
<path d="M1140 450 c-8 -5 -10 -10 -4 -10 7 0 14 -9 17 -20 3 -13 0 -20 -9
-20 -8 0 -14 -5 -14 -10 0 -7 6 -7 19 -1 14 8 20 7 25 -4 4 -12 10 -13 30 -4
22 10 23 13 10 27 -8 8 -13 20 -10 27 3 8 -2 11 -14 8 -17 -5 -17 -6 2 -25 16
-16 18 -22 7 -29 -9 -5 -16 -4 -18 4 -2 7 -8 15 -13 18 -5 3 -10 16 -11 27 -1
12 -1 22 -2 22 0 0 -7 -5 -15 -10z"/>
<path d="M2732 451 c-11 -7 -10 -9 3 -15 9 -3 14 -10 11 -14 -10 -16 38 -33
69 -24 23 6 25 10 12 15 -9 3 -19 2 -22 -3 -4 -6 -13 -10 -22 -10 -9 0 -13 3
-10 7 4 3 -2 13 -13 20 -11 8 -18 19 -15 24 7 11 4 11 -13 0z"/>
<path d="M72 400 c-1 -48 9 -63 24 -38 4 7 3 8 -5 4 -8 -6 -11 5 -8 38 2 25 0
46 -4 46 -4 0 -7 -22 -7 -50z"/>
<path d="M114 395 c1 -25 6 -48 9 -51 3 -3 4 6 3 20 -2 14 2 26 8 26 6 0 5 4
-3 9 -8 5 -11 16 -8 25 4 9 2 16 -3 16 -6 0 -8 -20 -6 -45z"/>
<path d="M1233 433 c-8 -3 -5 -11 9 -25 16 -16 18 -22 7 -29 -7 -4 -17 -5 -23
-2 -5 3 -6 1 -2 -5 5 -8 13 -8 32 0 13 6 20 14 15 18 -6 3 -14 15 -18 26 -4
12 -13 19 -20 17z"/>
<path d="M763 417 c4 -10 2 -17 -5 -17 -7 0 -3 -6 7 -14 10 -7 26 -11 35 -9
22 6 34 -33 13 -41 -11 -5 -13 -2 -9 10 5 13 2 15 -16 9 -13 -3 -29 -7 -35 -7
-7 -1 -13 -5 -13 -10 0 -4 -11 -8 -25 -8 -14 0 -25 -4 -25 -9 0 -4 12 -6 26
-3 21 4 25 2 19 -8 -6 -10 -4 -12 9 -7 10 4 24 7 32 7 9 0 13 4 10 9 -3 5 -16
7 -29 4 -21 -4 -21 -3 3 11 21 13 25 13 28 0 4 -17 28 -19 38 -2 5 8 10 6 14
-7 6 -18 7 -17 12 3 4 14 2 22 -7 22 -7 0 -15 9 -18 20 -3 11 0 20 6 20 6 0 8
2 5 5 -3 3 -17 1 -31 -4 -15 -6 -29 -6 -32 -1 -3 4 -1 10 4 12 5 1 2 10 -7 18
-14 13 -15 12 -9 -3z"/>
<path d="M1283 423 c-9 -3 -7 -11 7 -26 15 -15 17 -23 8 -28 -7 -4 -16 -5 -20
-3 -4 3 -8 0 -8 -5 0 -14 3 -14 34 0 24 11 24 12 6 32 -11 11 -17 24 -14 29 6
9 5 9 -13 1z"/>
<path d="M1868 418 c14 -18 0 -34 -20 -22 -7 4 -8 3 -4 -5 4 -6 16 -9 27 -6
13 5 25 -1 37 -16 14 -16 24 -20 41 -14 18 5 20 9 10 21 -11 13 -6 18 14 15 5
-1 6 3 2 9 -4 6 -16 5 -35 -5 -23 -12 -31 -12 -37 -2 -4 6 -17 19 -28 27 -18
14 -19 14 -7 -2z"/>
<path d="M925 412 c3 -3 -3 -11 -13 -19 -15 -11 -13 -12 11 -3 32 11 47 6 47
-16 0 -17 -12 -18 -27 -3 -9 9 -11 7 -9 -7 2 -11 5 -19 7 -18 42 11 48 16 39
33 -5 10 -7 21 -4 23 3 3 -9 8 -25 10 -17 3 -29 2 -26 0z"/>
<path d="M1041 403 c8 -9 8 -13 0 -13 -6 0 -1 -10 10 -21 17 -17 19 -23 8 -31
-11 -7 -10 -8 4 -4 10 3 21 6 24 6 2 0 -3 7 -12 16 -9 9 -14 23 -11 30 3 8 1
14 -5 14 -6 0 -8 4 -5 8 3 5 -1 9 -9 9 -11 0 -12 -4 -4 -14z"/>
<path d="M1333 413 c-9 -3 -7 -11 7 -26 15 -15 17 -23 8 -28 -7 -4 -16 -5 -20
-3 -4 3 -8 0 -8 -5 0 -14 3 -14 33 0 24 11 25 11 6 30 -11 11 -17 24 -14 29 7
11 6 11 -12 3z"/>
<path d="M1709 399 c-12 -7 -11 -9 2 -9 16 0 34 -26 31 -42 -1 -4 6 -4 15 -1
11 4 13 8 5 11 -7 2 -12 8 -12 13 0 15 22 10 36 -8 7 -10 14 -13 14 -6 0 6 -5
15 -10 18 -6 4 -8 11 -4 16 3 5 10 6 16 3 6 -4 8 -2 4 4 -4 7 -15 6 -34 -4
-23 -12 -28 -12 -38 0 -7 10 -15 12 -25 5z"/>
<path d="M244 378 c3 -10 1 -18 -4 -18 -6 0 -6 -9 0 -25 7 -18 6 -25 -3 -25
-8 0 -8 -3 2 -9 7 -5 14 -21 14 -36 0 -17 2 -23 7 -14 5 7 4 23 -1 36 -6 16
-5 23 4 23 8 0 8 3 -2 9 -8 5 -12 18 -9 29 3 11 1 26 -4 33 -8 11 -9 10 -4 -3z"/>
<path d="M1093 383 c-9 -3 -6 -11 8 -26 11 -12 15 -23 10 -25 -5 -2 -1 -12 11
-24 16 -16 18 -22 7 -29 -7 -4 -17 -5 -21 -3 -4 3 -8 0 -8 -5 0 -14 10 -13 40
4 14 8 19 14 13 15 -7 0 -13 7 -13 15 0 8 -6 15 -12 15 -9 0 -8 4 2 10 9 6 10
10 3 10 -6 0 -15 11 -20 24 -4 12 -13 21 -20 19z"/>
<path d="M205 374 c-11 -4 -11 -77 0 -94 3 -6 12 -10 18 -10 8 0 9 3 1 8 -6 4
-10 28 -10 55 1 26 1 47 1 46 0 0 -5 -3 -10 -5z"/>
<path d="M334 365 c-17 -8 -34 -22 -38 -31 -6 -17 -6 -17 12 -1 10 9 23 17 29
17 6 0 16 7 23 15 15 18 14 18 -26 0z"/>
<path d="M1143 373 c-9 -3 -6 -11 8 -26 11 -12 15 -23 10 -25 -5 -2 -2 -11 7
-21 12 -13 21 -15 31 -7 10 8 17 5 27 -9 14 -19 14 -19 12 5 -2 13 -11 32 -21
42 -10 10 -15 23 -12 28 4 6 -1 7 -11 3 -11 -4 -13 -8 -6 -11 7 -2 12 -10 12
-18 0 -8 6 -14 13 -14 8 0 7 -4 -3 -10 -20 -13 -32 -12 -28 2 2 6 -4 20 -14
30 -10 10 -16 23 -13 28 7 11 6 11 -12 3z"/>
<path d="M1399 367 c11 -14 11 -17 0 -18 -8 -1 -17 -1 -21 0 -12 2 -9 -14 4
-27 9 -9 9 -12 -2 -13 -8 -1 -18 -1 -22 0 -5 0 -8 -3 -8 -9 0 -13 10 -12 40 5
14 8 19 14 13 15 -17 0 -17 20 0 20 7 0 18 -9 25 -20 12 -20 6 -25 -20 -21
-12 2 -9 -14 4 -27 9 -9 9 -12 -2 -13 -8 -1 -18 -1 -22 0 -12 2 -9 -17 3 -25
8 -4 7 -9 -2 -15 -8 -5 -9 -9 -4 -9 6 0 17 5 25 10 10 6 11 10 3 10 -21 0 -15
16 10 28 12 6 16 11 10 11 -18 1 -16 21 1 21 8 0 17 -7 20 -16 4 -9 9 -14 13
-11 3 4 0 13 -7 22 -7 8 -9 15 -6 15 4 0 -2 10 -13 22 -11 11 -19 24 -16 28 2
3 -6 12 -18 20 -20 12 -21 12 -8 -3z"/>
<path d="M1569 367 c11 -14 11 -17 0 -18 -8 -1 -18 -1 -22 0 -4 1 -3 -8 3 -19
6 -11 16 -20 23 -19 9 0 9 2 0 6 -18 7 -16 23 2 23 15 0 38 -34 29 -43 -3 -3
4 -3 17 0 16 5 19 8 9 11 -17 6 -40 34 -35 42 2 3 -6 12 -18 20 -20 12 -21 12
-8 -3z"/>
<path d="M1824 364 c18 -17 21 -28 6 -19 -5 3 -18 1 -27 -4 -13 -7 -14 -10 -4
-11 8 0 20 -8 28 -17 14 -17 14 -17 9 0 -7 22 5 22 37 -3 l25 -20 -11 24 c-7
14 -17 22 -26 18 -9 -3 -12 -1 -7 6 4 7 2 12 -3 12 -6 0 -11 7 -11 15 0 8 -7
15 -16 15 -14 0 -14 -1 0 -16z"/>
<path d="M900 355 c10 -12 10 -15 -3 -15 -8 0 -17 3 -20 8 -2 4 -2 1 -1 -5 2
-7 -1 -13 -6 -13 -6 0 -10 -5 -10 -10 0 -6 12 -4 28 4 30 15 39 46 14 46 -12
0 -12 -3 -2 -15z"/>
<path d="M2858 359 c-10 -5 -18 -15 -18 -20 0 -6 4 -8 9 -4 5 3 12 1 15 -4 3
-5 -1 -11 -9 -15 -8 -3 -15 -11 -14 -18 0 -10 2 -10 6 0 2 6 11 12 19 12 16 0
19 16 4 25 -8 5 -7 11 1 21 13 16 10 17 -13 3z"/>
<path d="M33 337 c3 -9 2 -17 -3 -17 -6 0 -6 -9 0 -24 5 -14 5 -26 1 -28 -5
-2 -5 -12 0 -23 7 -19 8 -19 8 2 1 12 7 24 14 26 10 4 10 6 0 6 -15 1 -18 38
-4 43 5 2 2 10 -7 18 -14 13 -15 12 -9 -3z"/>
<path d="M1632 343 c-8 -3 -3 -12 14 -25 19 -16 22 -23 13 -29 -7 -4 -17 -5
-21 -3 -12 8 -9 -11 4 -24 7 -7 8 -12 4 -12 -5 0 3 -10 18 -21 15 -12 25 -23
22 -26 -6 -6 26 -43 36 -43 10 0 -11 37 -35 62 -17 18 -15 44 4 33 5 -4 9 -2
9 4 0 5 -5 13 -10 16 -6 4 -8 10 -5 15 3 4 -2 11 -10 14 -9 3 -19 14 -23 24
-4 11 -13 17 -20 15z"/>
<path d="M2564 338 c-5 -7 -2 -9 9 -5 10 4 18 -1 22 -13 5 -17 9 -18 26 -7 10
6 19 16 19 21 0 6 -5 5 -12 -2 -14 -14 -32 -16 -24 -3 3 5 -1 12 -10 15 -21 8
-22 8 -30 -6z"/>
<path d="M2738 343 c-10 -2 -18 -11 -18 -18 0 -9 6 -12 15 -9 8 4 15 1 15 -4
0 -6 -8 -13 -17 -16 -13 -3 -12 -4 3 -3 12 1 32 -7 45 -18 12 -11 19 -15 16
-8 -4 7 1 14 14 18 11 4 18 9 16 12 -3 2 -15 0 -26 -7 -28 -15 -27 3 2 31 21
21 21 21 1 11 -12 -6 -24 -8 -28 -4 -4 3 -4 -1 0 -11 3 -9 2 -17 -4 -17 -12 0
-24 29 -16 41 3 5 4 8 2 8 -2 -1 -11 -3 -20 -6z"/>
<path d="M1034 323 c2 -13 -2 -24 -11 -28 -11 -4 -14 0 -11 13 5 16 2 17 -28
8 -18 -6 -30 -14 -28 -18 3 -5 13 -4 24 2 13 7 19 6 24 -5 4 -12 10 -13 31 -3
14 6 22 14 17 17 -5 3 -12 13 -16 21 -3 9 -5 6 -2 -7z"/>
<path d="M411 317 c-1 -27 26 -87 40 -87 8 0 7 6 -4 18 -8 9 -20 33 -25 52 -6
19 -11 27 -11 17z"/>
<path d="M1250 320 c0 -5 6 -10 13 -10 8 0 8 -3 1 -8 -6 -4 -4 -13 7 -23 16
-16 17 -15 15 6 -1 23 -36 56 -36 35z"/>
<path d="M85 312 c-14 -10 -15 -42 -1 -42 8 0 8 -2 0 -8 -7 -4 -8 -15 -3 -27
9 -23 8 -24 12 53 1 17 2 32 2 32 0 0 -4 -4 -10 -8z"/>
<path d="M795 307 c-16 -5 -39 -16 -50 -24 -19 -13 -18 -14 10 -7 17 4 36 11
43 17 9 7 12 4 13 -9 0 -15 2 -14 10 5 12 30 11 31 -26 18z"/>
<path d="M1841 291 c-8 -5 -21 -7 -30 -3 -14 5 -13 2 2 -15 9 -11 14 -23 10
-27 -4 -4 1 -4 11 0 14 5 15 9 5 15 -15 9 -13 11 16 27 11 6 16 11 10 12 -5 0
-16 -4 -24 -9z"/>
<path d="M290 278 c-1 -2 -2 -25 -4 -53 -2 -32 -1 -43 5 -30 4 11 8 32 8 47 1
19 7 28 24 31 19 4 18 4 -5 6 -16 0 -28 0 -28 -1z"/>
<path d="M1064 254 c-10 -8 -14 -13 -8 -10 6 3 16 -6 22 -19 9 -19 9 -25 0
-25 -6 0 -9 -2 -6 -5 3 -3 13 -2 22 1 13 5 14 9 6 14 -7 4 -13 19 -13 34 -1
14 -2 26 -3 26 0 0 -9 -7 -20 -16z"/>
<path d="M1150 262 c0 -6 5 -14 11 -18 6 -4 7 -9 2 -13 -5 -3 -1 -14 9 -23 17
-17 18 -17 16 5 -2 23 -38 70 -38 49z"/>
<path d="M2737 259 c-19 -11 -23 -29 -6 -29 5 0 8 4 5 9 -12 19 20 18 42 -2
12 -11 22 -15 22 -9 0 7 7 12 15 12 8 0 15 5 15 10 0 13 -13 13 -28 -2 -9 -9
-16 -8 -29 5 -13 11 -23 13 -36 6z"/>
<path d="M131 251 c-8 -5 -12 -19 -9 -35 3 -15 1 -26 -6 -26 -6 0 -5 -4 3 -9
7 -5 10 -14 7 -20 -4 -6 -2 -11 4 -11 6 0 8 -4 5 -10 -3 -5 -1 -10 4 -10 13 0
13 2 2 34 -7 17 -7 26 2 30 9 3 9 5 0 5 -16 1 -17 33 -1 49 14 14 9 15 -11 3z"/>
<path d="M214 243 c3 -16 -1 -23 -12 -23 -11 0 -13 -3 -6 -8 7 -4 13 -16 15
-26 4 -21 29 -35 29 -16 0 6 -4 8 -10 5 -6 -4 -10 5 -10 19 0 14 6 26 13 26 8
0 9 3 1 8 -6 4 -14 14 -18 22 -3 8 -4 5 -2 -7z"/>
<path d="M1881 241 c-8 -5 -21 -7 -30 -3 -14 5 -13 2 2 -15 9 -11 14 -23 10
-26 -3 -4 -1 -7 5 -7 6 0 14 5 17 10 3 6 1 10 -4 10 -19 0 -12 17 12 28 12 6
18 11 12 11 -5 0 -16 -3 -24 -8z"/>
<path d="M174 203 c2 -13 0 -23 -4 -23 -5 0 -5 -13 0 -30 6 -21 5 -30 -3 -30
-8 0 -7 -4 2 -9 8 -5 11 -16 8 -26 -4 -10 -3 -14 4 -9 6 3 9 15 6 25 -3 10 0
20 7 23 7 3 7 5 -1 5 -7 1 -13 12 -13 26 0 14 6 25 13 25 8 0 9 3 1 8 -6 4
-14 14 -18 22 -3 8 -4 5 -2 -7z"/>
<path d="M1270 210 c-9 -6 -10 -10 -3 -10 10 0 29 -35 26 -50 0 -3 8 -14 18
-24 11 -11 19 -14 19 -8 0 6 -5 14 -11 18 -8 4 -7 9 2 15 11 7 10 9 -3 9 -11
0 -20 11 -25 30 -6 23 -11 27 -23 20z"/>
<path d="M1360 211 c0 -6 5 -13 11 -17 8 -4 7 -9 -2 -15 -12 -7 -12 -9 0 -9 8
0 20 -8 27 -17 7 -10 14 -13 14 -6 0 6 -5 15 -10 18 -6 4 -9 9 -7 13 2 4 -4
15 -15 25 -10 9 -18 13 -18 8z"/>
<path d="M0 107 c0 -67 4 -107 10 -107 10 0 4 198 -6 209 -2 2 -4 -44 -4 -102z"/>
<path d="M82 180 c3 -17 1 -30 -3 -30 -4 0 -4 -13 1 -29 4 -17 5 -31 1 -33 -4
-2 -4 -14 0 -28 l7 -25 1 27 c1 14 7 29 14 31 10 4 10 6 0 6 -17 1 -17 51 0
51 8 0 8 3 -2 9 -8 5 -12 18 -8 30 3 12 1 21 -5 21 -6 0 -8 -13 -6 -30z"/>
<path d="M2747 179 c-9 -6 -22 -7 -28 -3 -6 3 -5 -4 3 -15 10 -17 14 -18 16
-6 5 21 30 19 44 -5 15 -24 25 -26 25 -5 0 8 -6 15 -13 15 -7 0 -17 6 -21 14
-6 11 -13 12 -26 5z"/>
<path d="M1520 175 c0 -6 5 -16 12 -23 7 -7 9 -12 5 -12 -4 0 2 -9 13 -20 23
-23 38 -27 20 -5 -6 8 -9 19 -5 25 3 5 1 10 -6 10 -6 0 -18 8 -25 18 -7 9 -14
12 -14 7z"/>
<path d="M1795 170 c-4 -6 1 -7 11 -3 11 4 15 2 11 -4 -4 -6 0 -16 8 -23 12
-10 18 -10 30 0 12 10 16 9 21 -4 3 -9 11 -16 17 -16 5 0 3 8 -6 18 -10 10
-14 22 -10 25 3 4 1 7 -6 7 -6 0 -14 -7 -17 -15 -8 -21 -21 -19 -27 5 -5 21
-22 26 -32 10z"/>
<path d="M2820 175 c0 -15 46 -61 58 -57 17 5 15 -15 -3 -22 -8 -3 -20 3 -28
14 -9 13 -17 16 -27 9 -13 -7 -12 -9 2 -9 10 0 23 -9 30 -20 7 -11 16 -20 21
-20 4 0 6 4 3 9 -14 22 22 16 48 -8 16 -14 26 -20 22 -13 -4 7 -1 15 8 18 9 3
16 10 16 15 0 5 -9 4 -19 -3 -17 -10 -24 -7 -49 20 -34 36 -21 43 17 10 14
-13 23 -19 19 -14 -4 5 0 15 10 23 15 12 14 13 -10 7 -20 -4 -29 -2 -34 10 -5
13 -10 13 -27 4 -17 -9 -24 -7 -39 12 -10 12 -18 19 -18 15z"/>
<path d="M1060 160 c-8 -5 -10 -10 -4 -10 6 0 16 -11 22 -25 9 -19 9 -25 0
-25 -6 0 -9 -2 -6 -5 3 -3 13 -2 22 1 10 4 14 10 9 13 -4 3 -13 16 -20 28 -10
17 -10 23 0 26 7 3 8 6 2 6 -5 0 -17 -4 -25 -9z"/>
<path d="M2611 151 c-14 -14 -22 -16 -30 -8 -8 8 -11 8 -11 0 0 -7 -9 -15 -20
-18 -11 -4 -18 -11 -15 -16 10 -15 -12 -10 -25 6 -10 12 -10 18 1 32 13 15 12
15 -9 4 -24 -13 -23 -19 16 -59 6 -7 12 -20 12 -28 0 -8 4 -14 8 -14 5 0 9 7
9 15 0 8 -5 15 -10 15 -5 0 -4 7 3 15 12 15 35 11 25 -5 -3 -4 2 -13 10 -20
13 -11 14 -10 9 6 -4 10 -12 25 -18 33 -9 12 -8 13 4 9 9 -3 24 0 35 8 10 8
15 14 10 14 -5 0 0 7 11 15 10 8 16 15 12 15 -5 0 -17 -9 -27 -19z"/>
<path d="M1353 144 c-7 -3 -2 -15 13 -31 19 -20 21 -28 12 -35 -10 -6 -8 -8 5
-8 9 0 17 -6 17 -14 0 -8 5 -18 12 -22 8 -5 9 -2 4 12 -4 10 -8 23 -9 29 -1 5
-10 18 -20 29 -10 11 -15 26 -13 33 5 13 0 15 -21 7z"/>
<path d="M2760 143 c0 -6 -8 -14 -17 -16 -10 -2 -8 -3 5 -2 14 1 30 -7 42 -23
11 -13 20 -21 20 -16 -1 14 -50 70 -50 57z"/>
<path d="M980 130 c-8 -5 -10 -10 -4 -10 17 0 36 -48 21 -54 -7 -2 -5 -5 5 -5
9 -1 19 -11 21 -23 3 -14 4 -10 4 10 -1 17 -4 32 -8 32 -3 0 -11 11 -17 24 -8
19 -8 26 1 30 7 2 8 5 2 5 -5 0 -17 -4 -25 -9z"/>
<path d="M1780 130 c-12 -8 -12 -10 -1 -10 8 0 20 -8 27 -17 13 -16 13 -16 10
6 -3 29 -15 35 -36 21z"/>
<path d="M1220 120 c-9 -6 -10 -10 -3 -10 10 0 29 -39 24 -49 -2 -2 1 -7 7
-10 5 -3 14 -15 20 -26 10 -17 11 -17 12 -3 0 9 -5 20 -11 24 -8 4 -7 9 2 15
11 7 11 9 -1 9 -20 0 -43 47 -26 54 6 2 7 5 1 5 -5 0 -17 -4 -25 -9z"/>
<path d="M2617 115 c-21 -15 -23 -37 -2 -29 8 4 12 10 9 15 -10 17 10 9 34
-13 14 -13 22 -17 18 -10 -12 21 33 14 46 -8 7 -11 16 -20 21 -20 4 0 6 4 2 9
-3 5 0 13 6 17 7 4 21 -3 34 -18 15 -18 26 -23 36 -17 12 7 12 9 0 9 -11 0 -9
4 5 16 18 14 18 14 -5 3 -21 -10 -27 -9 -42 10 -10 13 -20 17 -24 11 -10 -17
-37 -11 -42 10 -5 18 -7 18 -28 4 -21 -14 -24 -13 -37 4 -11 17 -16 18 -31 7z"/>
<path d="M1460 110 c-13 -8 -13 -10 1 -10 14 0 27 -21 25 -40 -1 -9 47 -60 52
-55 3 3 -2 13 -11 23 -10 10 -14 22 -10 25 3 4 1 7 -5 7 -10 0 -28 38 -24 53
3 10 -10 9 -28 -3z"/>
<path d="M1523 104 c-8 -4 -5 -13 9 -30 12 -13 24 -20 27 -16 3 5 15 14 26 20
17 10 17 11 3 12 -9 0 -20 -5 -23 -10 -9 -15 -27 -1 -21 16 5 14 0 16 -21 8z"/>
<path d="M256 83 c14 -10 24 -51 14 -55 -4 -2 -1 -10 8 -18 14 -13 15 -12 9 3
-4 10 -2 17 6 17 9 0 9 2 1 8 -7 4 -13 16 -15 26 -2 11 -11 21 -19 23 -10 3
-11 2 -4 -4z"/>
<path d="M647 70 c6 -24 19 -34 28 -21 3 6 11 9 18 7 7 -1 9 -1 4 1 -4 3 -5 9
-1 14 10 16 -9 9 -22 -8 -12 -17 -13 -16 -14 5 0 12 -4 22 -9 22 -5 0 -7 -9
-4 -20z"/>
<path d="M824 67 c-7 -19 13 -67 28 -67 10 0 10 2 0 9 -7 4 -14 22 -14 39 -1
34 -6 40 -14 19z"/>
<path d="M2885 56 c-11 -6 -22 -12 -24 -13 -1 -1 0 -7 4 -13 5 -8 11 -5 21 7
12 16 15 16 24 3 5 -8 10 -10 10 -5 0 24 -15 33 -35 21z"/>
</g>
</svg>
